<?xml version="1.0" encoding="UTF-8"?><svg id="a" xmlns="http://www.w3.org/2000/svg" viewBox="0 0 3500 2000"><rect id="b" width="3500" height="2000" fill="#fff"/><g><g id="c"><path d="M393.85,1538c-6.45-13.02-12.83-26.52-18.96-40.11l15.12-2.96c6.09,13.5,12.43,26.91,18.84,39.85l-14.99,3.23Zm2704.61-16.82l-15.65-1.27c2.6-13.86,5.07-27.83,7.34-41.5l15.68,1.13c-2.28,13.72-4.75,27.73-7.36,41.64Zm-2740.98-63.7c-5.52-13.43-10.87-27.11-15.91-40.67l15.32-2.47c5.01,13.47,10.33,27.07,15.82,40.42l-15.22,2.72Zm2754.8-19.66l-15.7-.98c2-13.92,3.84-27.92,5.49-41.62l15.72,.82c-1.65,13.75-3.51,27.8-5.51,41.77Zm-2785.13-61.91c-4.56-13.69-8.89-27.52-12.88-41.13l15.49-1.97c3.97,13.52,8.28,27.27,12.8,40.87l-15.41,2.23Zm2795.17-21.7l-15.74-.66c1.34-13.91,2.51-27.94,3.48-41.7l15.75,.48c-.98,13.82-2.15,27.91-3.49,41.88Zm-2819.35-60.76c-3.51-13.85-6.75-27.82-9.65-41.52l15.62-1.43c2.88,13.61,6.1,27.48,9.59,41.24l-15.56,1.71Zm2825.25-23.03l-15.77-.3c.62-13.97,1.04-28.02,1.26-41.75l15.77,.11c-.22,13.79-.65,27.91-1.27,41.94Zm-2842.82-60.18c-2.35-13.99-4.4-28.06-6.08-41.83l15.72-.84c1.67,13.66,3.7,27.63,6.04,41.52l-15.68,1.14Zm2828.38-23.63c-.19-13.98-.59-28.02-1.2-41.74l15.77-.3c.61,13.78,1.02,27.9,1.2,41.95l-15.77,.09Zm-2838.6-60.13c-1.05-14.07-1.74-28.2-2.06-42l15.77-.16c.32,13.68,1.01,27.69,2.04,41.65l-15.75,.51Zm2834.87-23.3c-1.08-13.96-2.41-27.98-3.96-41.65l15.73-.77c1.55,13.75,2.89,27.84,3.98,41.89l-15.75,.53Zm-2821.01-60.52l-15.77-.21c.44-14.11,1.29-28.25,2.52-42.01l15.75,.61c-1.22,13.63-2.06,27.63-2.49,41.61Zm2811.58-22.68c-2.11-13.96-4.49-27.91-7.09-41.45l15.65-1.3c2.62,13.63,5.02,27.67,7.14,41.72l-15.7,1.03Zm-2804.08-60.43l-15.69-1.04c2.14-14.06,4.75-28.11,7.76-41.76l15.61,1.49c-2.98,13.5-5.56,27.4-7.68,41.31Zm2788.16-22.31c-3.28-13.87-6.88-27.7-10.71-41.08l15.5-1.92c3.86,13.49,7.49,27.42,10.79,41.4l-15.59,1.6Zm-1865.39-1.47c-21.92-2.28-37.77-8.85-59.73-20.21l9.97-8.06c19.24,9.92,33.13,15.87,51.44,17.93l-1.68,10.34Zm54.72-24.73l-14.05-4.73c7.22-9.32,13.6-22.25,18.97-38.44l15.41,2.22c-5.74,17.3-12.39,30.69-20.33,40.95Zm-160.74-25.29c-12.56-9.22-25.99-19.84-41.05-32.45l12.39-6.43c14.84,12.43,28.06,22.88,40.39,31.93l-11.74,6.95Zm-798.55-8.53l-15.48-1.98c4.09-13.88,8.71-27.71,13.74-41.12l15.31,2.5c-4.97,13.24-9.53,26.9-13.57,40.61Zm2746.49-21.87c-4.67-13.73-9.71-27.34-14.98-40.46l15.25-2.66c5.32,13.24,10.4,26.99,15.12,40.84l-15.39,2.27Zm-1756.26-27.1l-15.64-1.33c2.42-12.41,4.59-26,6.64-41.54l15.71,.9c-2.06,15.69-4.26,29.42-6.71,41.97Zm-271.37-8.45c-12.82-11.41-26.12-23.48-37.58-33.89l12.77-6.1c11.44,10.39,24.71,22.43,37.49,33.81l-12.68,6.19Zm1154.74-.86c-12.28,0-24.34-2.42-35.82-7.19l8.41-8.8c17.25,7.18,34.23,7.19,52.55,1.47l6.79,9.38c-10.84,3.4-21.58,5.13-31.93,5.13Zm-1843.26-22.4l-15.08-3.04c6.27-13.51,13.14-26.94,20.44-39.93l14.79,3.61c-7.19,12.8-13.97,26.04-20.14,39.36Zm1926.77-9.91l-11.59-7.05c11.96-8.54,24.78-19.07,39.19-32.19l12.78,6.1c-14.79,13.46-27.99,24.31-40.38,33.15Zm-164.17-7.15c-10.21-10.38-20.32-22.6-30.92-37.37l14.26-4.45c10.3,14.34,20.08,26.17,29.9,36.16l-13.24,5.65Zm921.15-4.6c-6.35-13.47-13.13-26.73-20.15-39.41l14.82-3.56c7.1,12.84,13.97,26.26,20.4,39.89l-15.06,3.09Zm-2070.18-22.86c-14.43-13-26.46-23.67-37.85-33.58l12.57-6.28c11.44,9.96,23.52,20.68,38,33.72l-12.73,6.14Zm357.78-7.73l-15.74-.67c1.2-12.18,2.41-25.87,3.72-41.85l15.75,.56c-1.31,16.02-2.53,29.75-3.73,41.96Zm-927.55-25.59l-14.43-4.2c8.66-12.93,17.89-25.62,27.69-38.03l13.99,4.81c-9.65,12.21-18.73,24.7-27.25,37.42Zm1959.49,0l-13.18-5.71c11.21-11.23,22.79-23.13,34.51-35.15l13.27,5.62c-11.75,12.05-23.34,23.96-34.59,35.25Zm-297-15.37c-7.14-11.81-14.53-24.7-22.57-39.4l14.84-3.53c7.98,14.59,15.31,27.37,22.38,39.07l-14.65,3.85Zm934.11-6.48c-8.48-13.02-17.45-25.67-26.66-37.59l14.06-4.72c9.37,12.12,18.48,24.98,27.1,38.2l-14.49,4.1Zm-2103.62-11.35c-14.31-11.71-27.63-22.13-40.73-31.86l11.8-6.9c13.26,9.85,26.74,20.4,41.21,32.24l-12.28,6.52Zm441.58-25.1l-15.75-.52c1.06-13.89,2.12-27.78,3.24-41.93l15.75,.54c-1.13,14.13-2.18,28.02-3.24,41.9Zm1094.11-12.05l-13.16-5.73c13.18-13.14,24.96-24.51,36.03-34.76l12.85,6.03c-10.96,10.14-22.65,21.42-35.72,34.46Zm-1970.14-2.93l-13.29-5.59c12.39-12.79,25.17-24.35,37.98-34.34l12.05,6.71c-12.36,9.64-24.72,20.82-36.74,33.23Zm1560.34-21.15c-7.23-13.97-14.33-27.95-20.32-39.78l14.96-3.29c5.98,11.82,13.07,25.77,20.28,39.71l-14.93,3.36Zm-1209.97-.73c-16.12-10.35-31.97-19.48-47.11-27.16l9.62-8.24c15.62,7.92,31.94,17.33,48.5,27.95l-11,7.45Zm2130.43-.44c-11.3-12.16-23.15-23.65-35.22-34.17l12.58-6.27c12.38,10.79,24.52,22.57,36.09,35.01l-13.45,5.43Zm-2399.82-39.19l-9.57-8.27c18.84-9.47,38.44-16.3,58.27-20.3l4.62,9.94c-18.03,3.64-35.97,9.9-53.31,18.62Zm1962.93-3.18l-12.25-6.55c14.79-12.03,28.81-22.38,42.85-31.65l11.16,7.35c-13.65,9.01-27.31,19.1-41.75,30.84Zm-1161.09-4.09l-15.74-.62c1.37-15.11,2.72-28.83,4.15-41.95l15.73,.74c-1.42,13.08-2.77,26.76-4.13,41.83Zm-631.7-2.18c-19.68-6.46-39.04-10.58-57.54-12.25l2.14-10.3c20.2,1.82,41.2,6.28,62.42,13.24l-7.03,9.31Zm2153.89-16.81c-15.18-10.25-30.91-19.31-46.73-26.9l9.29-8.4c16.53,7.94,32.93,17.37,48.73,28.04l-11.29,7.26Zm-885.1-12.95c-7.85-15.47-14.31-28.08-20.35-39.69l14.92-3.37c6.05,11.64,12.53,24.27,20.39,39.76l-14.96,3.3Zm612.96-21.36l-9.04-8.52c19.4-8.94,38.99-15.57,58.23-19.69l4.87,9.89c-17.76,3.8-35.95,9.97-54.07,18.32Zm172.1-12.74c-19.53-5.43-39.31-8.79-58.77-9.99l1.47-10.35c21.07,1.3,42.41,4.92,63.43,10.76l-6.13,9.58Zm-1412.97-17.54l-15.71-.92c1.97-14.59,4.1-28.67,6.36-41.87l15.67,1.16c-2.24,13.12-4.36,27.12-6.32,41.63Zm586.58-27.6c-7.62-14.02-14.8-26.84-21.96-39.18l14.73-3.71c7.19,12.41,14.41,25.3,22.07,39.39l-14.85,3.51Zm-572.23-55.49l-15.61-1.49c3.19-14.56,6.7-28.55,10.42-41.6l15.5,1.92c-3.68,12.91-7.15,26.76-10.31,41.17Zm526.84-22.51c-8.48-13.44-17.02-26.29-25.39-38.21l14.31-4.37c8.46,12.04,17.09,25.03,25.65,38.59l-14.57,3.99Zm-503.13-59.34l-15.3-2.52c5.5-14.52,11.57-28.19,18.03-40.64l14.92,3.36c-6.32,12.17-12.25,25.56-17.65,39.8Zm449.73-16.18c-10.37-12.88-20.97-24.97-31.5-35.93l13.33-5.56c10.74,11.19,21.54,23.51,32.1,36.61l-13.93,4.88Zm-408.39-61.7l-14.14-4.6c10.36-13.83,21.84-26.06,34.14-36.35l12.39,6.43c-11.62,9.72-22.51,21.33-32.38,34.52Zm340.75-7.95c-13.78-11.39-28.01-21.48-42.28-29.98l10.58-7.71c14.9,8.88,29.72,19.38,44.03,31.21l-12.33,6.48Zm-264.36-53.52l-8.5-8.76c18.68-7.88,39.27-13.01,61.19-15.23l2.4,10.27c-19.73,2-38.26,6.62-55.08,13.71Zm172.32,0c-18.37-6.53-37.51-10.99-56.88-13.27l2.77-10.24c21.03,2.47,41.75,7.3,61.6,14.35l-7.48,9.15Z" fill="#dce6ff"/><path d="M694.41,1594.24s-384.14-621.81-107.7-760.27c184.78-92.55,380.63,111.47,614.39,3.54,208.12-96.09,141.95-388.43,473.87-428.84,373.18-45.43,455.35,499.82,761.6,425.3,371.62-90.43,741.28,93.15,421.82,761.46l-2163.98-1.19Z" fill="#d4e8ff"/><path d="M3198.41,1379.87c-130.89-12.79-109.53,102.74-296.1,102.74-170.58,0-225.15-439.95-349.26-314.19-636.27,644.74-266.8-274.19-772.81-285.87-228.81-5.28-381.27,155.53-437.49,440.25-81.5,257.4-270.51-196.32-465.02-154.13-123.62,26.81-109.46,313.94-280.04,313.94-186.57,0-165.21-115.53-296.1-102.74-140.92,13.77-183.01,218.25-183.01,218.25H3381.42s-42.09-204.48-183.01-218.25Z" fill="#eef7ff"/><path d="M3082.5,1504.92c-120.41-5.46-100.76,43.87-272.4,43.87-156.93,0-152.62-110.56-257.63-134.06-193.39-43.27-352.83,175.73-427.8,65.82-142.4-291.64-557.73-437.9-749.33,0-74.98,109.91-250.31-86.21-427.8-65.82-109.25,12.55-100.7,134.06-257.63,134.06-171.64,0-151.99-49.33-272.4-43.87-129.64,5.88-168.37,93.2-168.37,93.2H3250.87s-38.72-87.32-168.37-93.2Z" fill="#dce6ff"/><path d="M121,1598.12s-22.89,55.02,71.94,68.79c129.72,18.84,891.13,68.34,706.16,105.96-104.42,21.23,53.3,50.07,561.9,60.69,508.59,10.62,1381.3-30.98,1087.82-92.54-293.48-61.55,902.23-14.86,829.4-142.9H121Z" fill="#cfddf9"/></g><path id="d" d="M2673.4,625.22c-1.4-6.71-66.79-.85-75,3.91,3.73-7.87,7.36-17.51,10.05-28.93,6.47,3.49,76.01-14.35,74.45-21.18-2.52-6.41-66.82,11.09-73.57,17.24,1.89-9.01,3.18-19.06,3.52-30.15,4.81,4.15,74.02-27.84,70.61-33.99-3.3-6.16-67.41,24.48-70.55,31.4,.13-7.8-.2-16.08-1.13-24.89,7.8,1.03,68.99-33.42,65.9-39.68-4.1-5.5-61.17,27.72-66.4,35.47-.9-7.4-2.37-15.53-4.11-23.39,8.07-.46,62.83-43.39,58.9-49.14-4.89-4.74-55.27,35.89-59.86,44.57-1.71-8.26-3.21-16.09-4.52-23.5,8.45-1.01,62.25-43.2,58.43-48.99-4.84-4.66-54.09,34.95-59.32,43.85-1.51-8.91-2.73-17.18-3.73-24.85,8.24-.71,62.57-43.31,58.7-49.08-4.85-4.66-54.14,35-59.34,43.89-1.03-8.56-1.75-16.3-2.24-23.3,7.1,.91,64.08-43.8,59.85-49.38-4.9-4.79-55.94,36.42-60.13,44.95-.56-9.51-.68-17.49-.55-24.08,7.08,.27,59.01-50.6,54.16-55.65-5.3-4.08-49.51,40.25-53.97,49.77,.26-20.96,7.62-23.38,13.45-48.33,13.5-49.32,2.86-52.22-10.42-2.83-6.9,25.39-5.75,30.98-7.32,48.12-1.95-11.41-26.97-64.66-32.95-62.53-6.58,2.49,26.29,71.67,32.6,71.31-.13,6.3-.03,13.84,.47,22.74-3.32-10.36-39.36-60.02-45.09-56.8-5.94,3.77,39.31,65.06,45.54,63.77,.5,6.77,1.21,14.25,2.2,22.45-5.72-9.64-50.13-50.28-55-46.01-4.4,5.43,48.23,52.75,55.91,53.15,.98,7.3,2.16,15.15,3.59,23.55-5.8-8.5-57.65-44.7-62.11-39.69-3.83,5.87,56.05,46.61,63.08,45.21,1.32,7.43,2.83,15.28,4.55,23.56-7.8-7.57-63.03-34.37-66.56-28.82-2.39,6.51,59.3,35.68,67.83,34.82,1.7,7.8,2.99,15.5,3.83,22.7-4.02-7.09-66.3-37.69-69.79-31.67-3.38,6.16,65.01,38.64,70.14,34.77,.87,8.35,1.18,16.22,1.07,23.62-4.82-7.21-65.78-37.15-69.36-31.22-2.84,6.4,62.44,37.28,69.26,34.89-.39,10.92-1.72,20.78-3.63,29.59-3.57-7.42-62.99-42.8-66.96-37.09-3.34,6.15,59.21,42.15,66.23,40.33-2.65,11.07-6.2,20.37-9.82,27.95-4.8-8.22-58.47-45.83-62.98-40.69-3.25,6.08,51.91,43.63,60.95,44.73-11.55,22.11-25.17,32.65-25.34,32.78l2.63,3.47c.61-.47,14.82-11.39,26.91-34.89,5.89,4.52,77.25-.85,76.94-7.84Z" fill="#ce4abf"/><path id="e" d="M2783.99,490.48c13.85,19.02,24.49,36.63,28.77,46.94,2.28-13.46,4.63-25.95,7.02-37.51-11.35-4.58-65.96-104.1-56.4-109.91,9.67-3.8,55.2,80.95,58.81,98.64,2.84-12.93,5.71-24.6,8.54-35.11-10.09-1.33-46.09-117.94-35.11-120.48,4.57-1.38,16.46,24.53,26.56,57.88,6.43,21.25,10.58,40.38,11.56,51.83,3.96-13.72,7.8-25.17,11.32-34.63-9.73-2.78-22.83-124.78-11.57-125.04,10.19,.04,19.81,93.57,16.74,111.95,11.39-25.03,12.68-34.2,36.51-68.88,46.18-67.63,60.77-57.64,14.26,9.79-22.03,34.66-34.38,34.36-45.89,65.95,11.66-12,102.15-55.71,107.9-46.7,4.61,10.23-100.68,59.61-111.29,55.48-3.68,9.89-7.72,22.01-11.91,36.69,10.74-10.65,109.91-46.01,114.67-36.15,3.39,10.69-106.25,48.09-116.58,42.99-2.96,10.83-5.96,22.92-8.93,36.4,12.46-10.66,108.15-44.61,112.92-34.96,2.73,10.8-101.75,46.4-114.68,43.15-2.56,12.12-5.08,25.27-7.51,39.54,12.51-10.66,108.1-44.56,112.86-34.92,2.62,10.8-100.82,46.06-114.23,43.15-1.94,11.89-3.82,24.52-5.6,37.91,11.41-10.66,109.26-45.49,114.05-35.71,2.82,10.79-102.48,46.67-115.02,43.13-1.53,12.68-3.54,25.47-6.15,37.53,11.91-8.94,115.93-29.02,119.12-18.51,1.27,11.1-109.27,30.79-120.6,25.13-3.11,13.27-6.89,26.01-11.34,38.15,8.55-8.74,121.44-21.14,123.14-10.08,1.8,11.11-119.26,22.8-124.64,14.09-5.86,15.31-12.84,29.8-21.21,43.64,13.49-5.69,119.87,1.87,120.2,12.88-1.37,11.12-115.5,1.35-123.67-7.32-9.03,14.09-19.25,26.93-30.58,38.38,14.81-2.9,116.98,22.9,115.45,33.75-3.31,10.7-113.87-18.87-120.45-28.84-30.7,29.12-57.95,38.13-59.12,38.51l-2.14-6.64c.27-.09,26.46-8.81,55.63-36.15-13.03-6.36-76.67-92.46-68.49-99.85,9.59-5.3,70.7,79.76,73.68,94.81,9.49-9.54,19.76-21.73,29.63-37.06-11.51-.91-87.13-88.5-78.78-95.99,9.08-6.45,80.07,78.31,81.61,91.49,7.55-12.31,14.78-26.51,21.14-42.82-11.52,.06-93.98-81.24-86.25-89.37,8.61-6.99,84.79,70.36,88.33,83.88,4.09-11.13,7.77-23.2,10.88-36.27-9.77,3.16-96.03-82.14-87.63-89.65,8.51-7.2,86.34,71.87,88.75,84.78,2.53-11.33,4.66-23.65,6.21-36.34-13.27-3.14-91.23-79.99-84.11-88.51,8.35-6.44,77.5,63.14,85.37,78.77,1.78-13.43,3.65-26.1,5.58-38.03-11.32-1.53-80.37-94.91-71.44-101.7,3.86-2.81,23.62,17.74,44.14,45.91Z" fill="#7689d6"/><path id="f" d="M2974.71,732.08c.11,14.78-.9,27.67-2.49,34.5,6.09-6.04,11.86-11.55,17.31-16.58-4.12-6.49,4.41-77.3,11.42-76.77,6.33,1.6-1.43,61.54-6.06,71.89,6.18-5.56,11.92-10.48,17.21-14.8-4.67-4.37,19.62-77.1,26.16-74.38,2.84,.97-.57,18.55-7.62,39.28-4.49,13.21-9.37,24.49-13.06,30.7,7.04-5.56,13.19-10,18.45-13.54-3.95-4.98,34-72.08,39.85-68.09,5.19,3.75-24.13,55.04-32.42,63.3,14.98-8.61,18.99-12.83,43.85-21.82,48.33-17.63,52.13-7.2,3.7,10.22-23.93,9.64-30.13,4.96-47.57,16.89,10.35-1.86,72.55,8.93,72.19,15.64-1.39,6.91-73.23-6.4-77.14-12.39-5.5,3.71-12,8.42-19.51,14.38,9.38-1.51,72.96,16.72,71.79,23.5-2.18,6.7-71.86-14.32-75.27-20.71-5.47,4.45-11.43,9.53-17.88,15.32,10.26-.88,71.56,16.8,70.46,23.47-2.56,6.51-68.94-13.54-74.35-19.93-5.74,5.25-11.84,11.05-18.31,17.45,10.29-.87,71.51,16.8,70.41,23.47-2.61,6.47-68.34-13.37-74.13-19.76-5.34,5.36-10.92,11.12-16.73,17.31,9.73-1.27,72.45,16.75,71.31,23.5-2.51,6.54-69.41-13.67-74.52-20.06-5.42,5.92-11.13,11.71-16.87,16.91,9.35-.21,69.82,27.6,67.61,34.14-3.42,6.13-67.07-24.26-70.79-31.3-6.44,5.64-13.03,10.76-19.75,15.33,7.56-1.33,69.75,33.64,66.58,39.91-3.15,6.33-69.25-32-68.81-38.41-8.6,5.68-17.46,10.52-26.8,14.52,8.97,2.03,60.53,44.82,56.67,50.56-4.77,5.18-59.48-41.57-60.48-48.99-9.76,3.89-19.69,6.71-29.66,8.41,8.62,3.94,51.36,54.5,46.61,59.48-5.61,4.26-51.25-51.31-50.96-58.81-26.33,3.63-43.55-1.73-44.28-1.97l1.34-4.17c.17,.05,16.74,5.18,41.64,1.9-4.33-8.01-5.32-75.27,1.57-76.06,6.84,.81,6.92,66.61,2.93,75.38,8.34-1.4,18.04-3.87,28.69-8.08-5.55-4.68-12.11-77.08-5.1-77.85,7,.03,12.23,69.29,8.2,76.58,8.36-3.52,17.25-8.13,26.46-14.13-5.91-4.19-18.27-75.88-11.35-77.2,6.96-.42,17.55,66.96,14.42,75.16,6.16-4.19,12.46-9,18.83-14.54-6.15-1.96-18.98-77.09-11.95-77.85,6.98-.56,17.79,68.3,14.3,75.77,5.44-4.86,11.03-10.37,16.47-16.29-5.63-6.46-17.32-74.24-10.57-75.98,6.62-.23,16.47,60.6,14.77,71.47,5.83-6.21,11.41-11.99,16.77-17.38-5.22-4.93-6.32-77.88,.73-78.08,3-.02,5.57,17.7,5.74,39.6Z" fill="#7689d6"/><path id="g" d="M884.5,619c3.12-6.11,64.67,16.74,71.33,23.5-1.53-8.57-2.49-18.83-2.09-30.56-7.16,1.67-69.55-33.84-66.26-40.01,4.11-5.53,61.55,28.27,66.45,35.99,.55-9.19,1.94-19.22,4.53-30.02-5.73,2.74-64.09-46.33-59.18-51.36,4.81-5.08,58.59,41.35,59.81,48.85,1.92-7.56,4.42-15.46,7.64-23.71-7.79-1.05-57.77-50.39-53.15-55.62,5.41-4.23,51.72,42.83,54.73,51.69,2.82-6.9,6.38-14.36,10.12-21.49-7.67-2.56-49.2-58.39-43.9-62.9,5.96-3.29,43.89,49.16,46.03,58.74,3.82-7.52,7.33-14.68,10.54-21.48-7.89-3.2-48.69-58.05-43.48-62.63,5.9-3.22,42.99,47.95,45.69,57.91,3.8-8.2,7.16-15.86,10.13-23-7.77-2.85-48.98-58.24-43.72-62.79,5.9-3.22,43.03,48,45.71,57.95,3.24-7.99,5.97-15.27,8.29-21.89-7.09-.99-50.31-59.11-44.75-63.38,5.98-3.33,44.4,49.85,46.19,59.19,3.04-9.03,5.25-16.7,6.86-23.09-6.9-1.6-43.63-64.34-37.61-67.93,6.18-2.54,37.19,51.85,38.98,62.21,5.26-20.29-1.2-24.56-.26-50.17-.06-51.13,10.98-51.14,10.8,.01-.02,26.31-2.6,31.4-5.6,48.35,4.89-10.5,43.02-55.29,48.24-51.66,5.69,4.13-44.21,62.23-50.21,60.23-1.53,6.11-3.62,13.36-6.43,21.82,5.93-9.12,53.76-47.56,58.44-42.94,4.74,5.2-55.03,52.43-60.71,49.55-2.26,6.41-4.92,13.43-8.03,21.08,8.06-7.8,61.59-35.33,65.16-29.93,2.82,6.39-60.41,38.21-67.92,36.57-2.86,6.79-6.07,14.05-9.66,21.78,7.83-6.67,67.38-27.96,70.37-21.96,2.15,6.67-66.33,30.23-72.75,27.03-3.23,6.82-6.75,14-10.59,21.54,9.52-5.25,69.85-16.58,71.8-10.3,.59,6.91-66.59,18.82-74.6,15.76-3.7,7.08-6.96,14.17-9.67,20.89,5.75-5.78,73.88-18.92,75.66-12.2,1.64,6.83-72.89,20.18-76.81,15.1-3.03,7.82-5.41,15.33-7.24,22.51,6.55-5.69,73.23-18.54,75.13-11.88,1.06,6.92-70.05,19.54-76,15.44-2.5,10.64-3.81,20.5-4.28,29.51,5.4-6.22,72.03-24.72,74.36-18.17,1.6,6.82-68.21,25.09-74.5,21.49-.35,11.38,.62,21.29,2.12,29.55,6.79-6.67,68.46-28.83,71.46-22.69,1.53,6.72-61.56,28.44-70.57,27.12,5.33,24.37,15.7,38.12,15.82,38.29l-3.45,2.66c-.47-.61-11.3-14.89-16.78-40.73-6.87,2.81-74.3-21.14-72.17-27.8Z" fill="#ce4abf"/><path id="h" d="M825.92,1051.5c-6.11-3.11,16.67-64.69,23.41-71.36-8.57,1.54-18.83,2.51-30.56,2.13,1.68,7.16-33.76,69.59-39.93,66.31-5.53-4.11,28.2-61.58,35.91-66.49-9.19-.54-19.23-1.92-30.02-4.5,2.74,5.73-46.25,64.15-51.29,59.24-5.08-4.8,41.28-58.64,48.78-59.87-7.56-1.91-15.47-4.4-23.72-7.61-1.04,7.79-50.32,57.83-55.55,53.21-4.24-5.4,42.77-51.77,51.62-54.79-6.91-2.81-14.37-6.36-21.5-10.09-2.56,7.67-58.33,49.27-62.85,43.97-3.29-5.96,49.11-43.94,58.68-46.1-7.53-3.81-14.69-7.31-21.5-10.51-3.19,7.89-57.99,48.76-62.58,43.56-3.23-5.9,47.9-43.05,57.86-45.76-8.21-3.79-15.87-7.14-23.01-10.11-2.84,7.77-58.19,49.05-62.74,43.79-3.23-5.9,47.95-43.09,57.9-45.78-7.99-3.23-15.28-5.96-21.9-8.26-.98,7.09-59.05,50.38-63.32,44.83-3.34-5.98,49.8-44.45,59.13-46.26-9.04-3.03-16.71-5.23-23.1-6.84-1.59,6.9-64.28,43.7-67.89,37.69-2.55-6.18,51.81-37.25,62.17-39.05-20.29-5.24-24.56,1.23-50.17,.32-51.13,.12-51.15-10.92,0-10.8,26.31-.01,31.41,2.56,48.36,5.54-10.5-4.87-55.34-42.96-51.72-48.18,4.12-5.7,62.28,44.14,60.29,50.14,6.11,1.53,13.36,3.6,21.83,6.41-9.13-5.92-47.62-53.7-43.01-58.39,5.19-4.74,52.49,54.97,49.62,60.65,6.41,2.25,13.43,4.9,21.09,8.01-7.81-8.05-35.4-61.55-30-65.13,6.39-2.83,38.28,60.37,36.66,67.87,6.79,2.85,14.05,6.05,21.79,9.64-6.68-7.82-28.04-67.35-22.04-70.34,6.66-2.16,30.31,66.3,27.11,72.71,6.82,3.22,14,6.74,21.55,10.57-5.26-9.51-16.67-69.83-10.39-71.79,6.91-.6,18.9,66.57,15.85,74.58,7.09,3.69,14.18,6.94,20.91,9.64-5.79-5.74-19.01-73.86-12.29-75.64,6.83-1.65,20.27,72.87,15.19,76.79,7.83,3.02,15.34,5.39,22.52,7.22-5.7-6.54-18.62-73.21-11.97-75.11,6.92-1.07,19.62,70.03,15.53,75.98,10.64,2.49,20.51,3.78,29.51,4.25-6.23-5.39-24.81-72-18.26-74.34,6.81-1.61,25.17,68.18,21.58,74.48,11.38,.34,21.29-.64,29.55-2.16-6.68-6.78-28.92-68.43-22.78-71.43,6.72-1.54,28.51,61.52,27.21,70.54,24.36-5.35,38.1-15.74,38.27-15.87l2.66,3.45c-.61,.47-14.88,11.31-40.71,16.83,2.82,6.86-21.05,74.33-27.71,72.21Z" fill="#ce4abf"/><path id="i" d="M770.06,570.04c-8.83,21.81-14.89,41.47-16.54,52.51-5.47-12.51-10.78-24.05-15.9-34.69,9.9-7.19,38.78-116.98,28.1-120.3-10.3-1.34-33.94,91.91-33.16,109.95-5.89-11.86-11.5-22.49-16.79-31.99,9.47-3.73,16.15-125.59,4.88-125.39-4.77-.24-10.03,27.79-11.74,62.59-1.09,22.17-.48,41.74,1.34,53.09-7.17-12.35-13.66-22.54-19.37-30.86,8.76-5.06-8.07-126.59-19.07-124.12-9.87,2.51,3.45,95.59,10.87,112.68-17.12-21.52-20.59-30.11-52.11-57.98-61.19-54.42-72.92-41.21-11.47,12.95,29.77,28.29,41.68,25.01,60.49,52.87-14.22-8.82-112.6-29.3-116-19.17-1.99,11.04,112.12,33.44,121.42,26.87,5.96,8.71,12.83,19.49,20.44,32.72-13-7.73-117.78-18.02-120.01-7.29-.7,11.2,114.74,20.92,123.52,13.47,5.49,9.79,11.34,20.8,17.48,33.15-14.67-7.32-115.74-17.08-118.02-6.56-.03,11.14,109.96,20.37,121.72,14.08,5.42,11.14,11.05,23.29,16.86,36.54-14.71-7.31-115.67-17.05-117.95-6.54,.07,11.11,108.97,20.26,121.28,14.2,4.76,11.06,9.64,22.86,14.62,35.42-13.65-7.58-117.03-17.67-119.3-7.02-.12,11.15,110.73,20.46,122.04,13.99,4.56,11.94,9.6,23.86,15.06,34.92-13.72-5.79-119.5-.07-120.06,10.9,1.46,11.08,113.47,3.4,123.1-4.84,6.23,12.13,12.98,23.57,20.25,34.27-10.41-6.41-122.94,8.91-121.92,20.05,.95,11.22,121.23-6.77,124.34-16.52,9.4,13.44,19.67,25.8,31.15,37.2-14.47-2.25-115.85,30.85-113.5,41.61,4.02,10.46,112.39-26.66,118.21-37.06,12.17,11.48,25.2,21.46,38.97,29.82-15.07,.77-107.95,50.55-103.83,60.71,5.8,9.58,105.91-45.89,109.88-57.16,36.84,20.81,65.46,22.96,66.69,23.04l.47-6.96c-.29-.02-27.81-2.14-62.73-21.6,11.1-9.32,51.99-108.28,42.26-113.47-10.59-2.81-49.27,94.51-48.51,109.84-11.52-6.95-24.44-16.3-37.72-28.78,10.95-3.67,63.1-106.97,53.18-112.22-10.37-4.06-58.72,95.37-57.02,108.53-10.31-10.11-20.76-22.14-30.88-36.42,11.2-2.73,71.51-101.59,62.04-107.6-10.05-4.7-65.22,88.8-65.38,102.78-6.67-9.81-13.16-20.62-19.34-32.56,10.25,.7,73.27-102.96,63.31-108.21-10-4.92-66.36,90.64-65.57,103.75-5.2-10.38-10.25-21.82-14.83-33.76,12.11-6.26,69.14-99.71,60.17-106.25-9.66-4.23-59.89,80.03-63.75,97.11-4.98-12.6-9.86-24.44-14.62-35.55,10.61-4.23,54.99-111.55,44.68-115.98-4.43-1.79-18.62,22.94-31.7,55.23Z" fill="#7689d6"/><g id="j"><g><path d="M1077.04,617.58h-116.79c-25.88,0-46.87,20.98-46.87,46.87-13.62,102.88,34.17,671.6-32.94,744.4-67.14,65.44-228.24,36.18-230.75,49.93l-17.45,95.31c-10.08,72.46,115.05,72.19,170.94,76.79,150.05-.36,252.7-62.98,297.45-195.78,44.73-103.64,15.22-650.95,23.29-770.64-.01-25.89-20.99-46.87-46.88-46.87Z" fill="#f49f9f"/><path d="M2033.86,747.01c-221.27-254.52-664.95-156.02-763.95,166.82-85.45,239.96-16.15,573.34,236.07,679.86,167.8,73.68,388.02,37.1,513.85-98.9,171.83-174.61,187.56-553.94,14.03-747.78Zm-337.98,694.81c-333.2-9.79-317.91-650.97,1.33-649.96,325.98,3.97,323.38,648.15-1.33,649.96Z" fill="#f49f9f"/><path d="M2868.66,1123.24c-16.5-17.12-35.55-32.38-56.39-45.35,125.78-91.8,130.45-300.22,3.73-391.42-65.02-52.29-150.54-75.61-277.08-75.61-79.6,0-165.09,7.59-223.1,19.8-21.69,4.57-37.21,23.7-37.21,45.86v890.02c0,23.41,17.27,43.23,40.46,46.43,68.02,12.35,303.83,19.17,387.89-11.07,217.62-42.96,315.16-319.65,161.7-478.66Zm-171.23-227.9c-1.12,102.79-124.45,108.84-208.3,104.82v-203.65c85.17-2.92,206.82-13.23,208.3,98.82Zm-208.3,287.16c86.72-.16,230.84-6.67,236.5,127.64,2.34,123.97-135.5,133.72-236.5,127.99v-255.64Z" fill="#f49f9f"/></g><g><path d="M1007.6,617.58h-116.79c-25.88,0-46.87,20.98-46.87,46.87-12.64,104.03,32.62,668.77-32.94,744.39-11.36,13.48-31.46,28.95-86.65,28.95-40.01,0-69.98-9.98-81.01-14.26-26.35-11.02-58.65,7.03-63.09,35.24l-17.45,95.31c-10.06,72.45,115.03,72.2,170.94,76.79,150.05-.36,252.7-62.98,297.45-195.78,44.9-103.84,15.1-650.82,23.29-770.64-.01-25.89-20.99-46.87-46.88-46.87Z" fill="#fcb4b4"/><path d="M1964.43,747.01c-221.27-254.52-664.95-156.02-763.95,166.82-85.45,239.96-16.15,573.34,236.07,679.86,167.8,73.68,388.02,37.1,513.85-98.9,171.83-174.61,187.56-553.94,14.03-747.78Zm-337.98,694.81c-333.2-9.79-317.91-650.97,1.33-649.96,325.98,3.97,323.38,648.15-1.33,649.96Z" fill="#fcb4b4"/><path d="M2799.22,1123.24c-16.5-17.12-35.55-32.38-56.39-45.35,125.78-91.8,130.45-300.22,3.73-391.42-65.02-52.29-150.54-75.61-277.08-75.61-79.6,0-165.09,7.59-223.1,19.8-21.69,4.57-37.21,23.7-37.21,45.86v890.02c0,23.41,17.27,43.23,40.46,46.43,68.02,12.35,303.83,19.17,387.89-11.07,217.62-42.96,315.16-319.65,161.7-478.66Zm-171.23-227.9c-1.12,102.79-124.45,108.84-208.3,104.82v-203.65c85.17-2.92,206.82-13.23,208.3,98.82Zm-208.3,287.16c86.72-.16,230.84-6.67,236.5,127.64,2.34,123.97-135.5,133.72-236.5,127.99v-255.64Z" fill="#fcb4b4"/></g></g><g id="k"><path d="M1688.03,309.26s8.86-17.11,35.86-12.06c27,5.05,33.37,39.31,42.54,54.91,19.41,33.03,25.23,68.14,15.14,85-11.2,18.73-35.93,11.4-72.05,8.05-38.54-3.58-54.69-37.04-30.71-83.03l9.23-52.86Z" fill="#c92828"/><path d="M1699.23,388.79c-10.56,15.48-17.3,90.97-17.52,96.83-12.42-.92-42.26-3.12-54.99-4.06-3.59-27.63,33.04-84.3,66.46-91.02h0c3.76-1.29,6.04-1.75,6.04-1.75Z" fill="#3a72aa"/><g><path d="M1542.66,804.94l53.69-.59c-.14-8.58-2.42-25.91-.72-35.7l-23.17,2.99c.64,4.7,2.07,14.9-5.74,17.35-10.11,3.16-21.13,2.19-27.44,9.97-1.64,2.61,.3,6.01,3.38,5.98Z" fill="#f99370"/><path d="M1597.92,799.17c-.2,1.82-.68,3.59-1.57,5.19l-54.21,.6c-2.64,.03-4.57-2.54-3.73-5.04,1.99-5.83,9.05-14.35,34.02-15.93,0,0,8.53,2.44,22.48-.25,0,0,3.83,8.06,3.01,15.43Z" fill="#1d3f70"/><path d="M1554.35,797.82c-.43,0-.84-.25-1.01-.67-2.04-4.88-5.64-6.34-5.79-6.4-2.88-4.37,5.33-1.33,7.82,5.55,.31,.7-.25,1.54-1.01,1.52Z" fill="#e8c0a6"/><path d="M1562.87,796.7c-.46,0-.9-.3-1.05-.76-1.82-5.66-6.79-8.23-6.84-8.25-2.62-5.09,6.92,.28,8.93,7.58,.24,.69-.32,1.45-1.04,1.44Z" fill="#e8c0a6"/><path d="M1572.57,795.4c-.45,0-.87-.28-1.03-.73-2.11-5.87-6.89-9.03-6.93-9.06-2.04-5.35,6.65,1.07,9,8.32,.27,.7-.29,1.48-1.03,1.47Z" fill="#e8c0a6"/><path d="M1538.44,799.82l59.48-.65c-.2,1.82-.68,3.59-1.57,5.19l-54.21,.6c-2.67,.03-4.62-2.62-3.69-5.13Z" fill="#395b96"/></g><path d="M1712.74,599.98c-26.42-1.11-72.46-15.66-92.31,17.95-21.74,36.71-16.42,114.6-14.22,152.24-29.01,9.34-44.6,0-44.6,0-12.36-77.05-53.06-252.56,83.04-228.21,0,0,91.27,0,91.27,0,15.27,31.12,1.62,57.5-23.17,58.02Z" fill="#3a72aa"/><g><path d="M1607.04,804.94l53.69-.59c-.14-8.58-2.42-25.91-.72-35.7l-23.17,2.99c.64,4.7,2.25,14.9-5.74,17.34-10.14,3.09-21.13,2.19-27.44,9.97-1.64,2.61,.3,6.01,3.38,5.98Z" fill="#f99370"/><path d="M1662.3,799.16c-.2,1.82-.68,3.59-1.57,5.19l-54.21,.59c-2.64,.03-4.57-2.54-3.73-5.04,1.99-5.83,9.05-14.35,34.02-15.93,0,0,8.53,2.44,22.48-.25,0,0,3.83,8.06,3.01,15.43Z" fill="#1d3f70"/><path d="M1618.73,797.82c-.43,0-.84-.25-1.01-.67-2.04-4.88-5.64-6.34-5.79-6.4-2.88-4.37,5.33-1.33,7.82,5.55,.31,.7-.25,1.54-1.01,1.52Z" fill="#e8c0a6"/><path d="M1627.25,796.69c-.46,0-.9-.3-1.05-.76-1.82-5.66-6.79-8.23-6.84-8.25-2.62-5.09,6.92,.28,8.93,7.58,.24,.69-.32,1.45-1.05,1.43Z" fill="#e8c0a6"/><path d="M1636.95,795.39c-.45,0-.87-.28-1.03-.73-2.11-5.87-6.89-9.03-6.93-9.06-2.04-5.35,6.65,1.07,9,8.32,.27,.7-.29,1.48-1.03,1.47Z" fill="#e8c0a6"/><path d="M1602.82,799.82l59.48-.65c-.2,1.82-.68,3.59-1.57,5.19l-54.21,.59c-2.67,.03-4.62-2.62-3.69-5.13Z" fill="#395b96"/></g><path d="M1652.07,541.96l-7.81,56.9c-34.13,13.44-36.42,50.3-39.54,90.72-15.8-62.45-14.59-126.53,47.34-147.63Z" fill="#23659b"/><path d="M1747.13,602.62c-27.65,17.02-55.27-1.55-74.72,37.71-15.7,34.38-6.89,100.07-2.58,129.85-29.01,9.34-44.6,0-44.6,0-17.2-66.47-56.54-220.93,54.62-228.21,30.44-.97,70.43-.7,97.34-2.32,0,0,7.47,39.88-30.05,62.98Z" fill="#3a72aa"/><path d="M1777.72,523.92c2.36,16.83-1.06,36.41-1.06,36.41-35.93-11.42-68.6-12.48-123.19-20.1,34.47-103.26-45.37-31.01,45.76-151.43,.22,.02,22.36,2.02,22.56,2.04,25.62,19.27,42.13,44.82,55.92,133.09Z" fill="#3a72aa"/><path d="M1652.67,462.45c-.53,0-.96-.46-.91-.99,1.82-15.08,17.8-34.63,19.9-33.59,1.43,1.84-17,18.04-18.08,33.75-.04,.48-.44,.83-.91,.83Z" fill="#23659b"/><g id="l"><polygon points="1557.14 547.87 1677.93 547.87 1653.88 459.32 1533.82 459.32 1557.14 547.87" fill="#163260"/><rect x="1557.14" y="547.43" width="120.8" height="6.01" fill="#234270"/><polygon points="1652.07 459.32 1656.39 459.32 1679.95 547.43 1737.27 547.43 1737.27 553.44 1675.92 553.44 1675.92 548.06 1652.07 459.32" fill="#0b274f"/></g><path d="M1761.51,407.98c27.85,20.87,42.72,58.43,35.36,92.59-2.82,19.19-14.92,37.43-33.86,42.86-9.35,3.74-52.96,9.75-50.93-5.73,.69-3.71,3.99-5.08,7.18-6.07,5.26-1.85,10.68-3.9,15.69-6.18,8.98-4.66,20.52-9.03,22.48-19.11,4.16-23.54-5.48-46.55-23.07-61.91,.03,.02-.08-.07,.18,.12-23.84-17.75,3-54.09,26.98-36.56Z" fill="#f99370"/><path d="M1778.2,539.22c-14.18,6.33-27.61,8.27-37.93,8.65,0,0,2.38-15.4-8.75-21.75,62.7-47.65-26.85-67.71-9.65-137.73,67.23,1.2,136.65,103.11,56.33,150.83Z" fill="#3a72aa"/><path d="M1685.48,547.43s5.38-18.81,37.5-16.64l6.73,16.64h-44.22Z" fill="#f99370"/><path d="M1747.73,547.35c-4.59,.51-7.45,.52-7.45,.52,0,0,2.38-15.4-8.75-21.75,0,0,2.74-1.78,6.32-4.94,0,0,12.2,8.96,9.88,26.17Z" fill="#23659b"/><path d="M1737.27,523.81c-.81,.02-1.24-1.08-.6-1.6,27.84-24.81,14.21-51.07-2.36-68.09-.81-.83,.55-2.14,1.34-1.24,17.61,17.61,30.97,46.7,1.61,70.93Z" fill="#23659b"/><path d="M1747.13,547.44c-5.21-3.03,14.62-1.52,29.71-8.65,.47-.19,1,.03,1.19,.5,.19,.47-.03,1-.5,1.19-15.58,6.39-30.2,6.96-30.4,6.96Z" fill="#23659b"/><path d="M1728.09,416.57c-.64,4.81-5.25,6.31-6.4,6.06-16.17-6.91-4.67,14.91-11.32,17.14-5.6,1.87-6.26-5.43-11.14-5.83-7.08-.58-8.52,3.28-11.01,.93-3.46-3.26,4.92-8.96,3.85-14.8-.75-4.1-8.91,.02-8.8-8.42,.13-8.29,9.62-20.71,9.92-21.1h0c5.97-3.34,18.97-1.83,24.88-1.75,.09-.59,3.81-.41,3.81-.41,0,0,2.6-.57,5.11,.38,1.23,6.74,2.39,20.58,1.11,27.8Z" fill="#f4d4be"/><path d="M1699.78,380.77l-.55,8.02s-.75,7.72-.75,22.06c0,20.17,4.98,17.82,11.89,3.73,3.8-7.74,11.5-25.56,11.5-25.56,0,0-.03-5.27,.39-8.51l-22.48,.26Z" fill="#f99370"/><path d="M1726.65,357.81c-.09,.38-.2,.77-.33,1.14-.48-.39-3.24,12.96-4.24,23.13-9.65,5.65-20.81,4.9-22.72,4.31,.52-15.06,1.78-37.59,13.37-41.78,7.77-2.47,16.01,5.2,13.91,13.21Z" fill="#e57d61"/><path d="M1697.42,308.21c-29.13-3.5-33.76,42.49-13.96,59.41l13.96-59.41Z" fill="#c92828"/><path d="M1731.76,340.61c1.41,10.04,1.5,21.82-4.11,30.48h-.01c-15.33,25.07-66.05,8.91-52.15-20.82,2.04-3.79,3.19-8.41,3.34-12.32,.46-41.05,48.87-32.44,52.93,2.66Z" fill="#f99370"/><path d="M1693.43,345.96c-1.39-1.39,.83-3.54,2.18-2.11,1.39,1.39-.83,3.54-2.18,2.11Z" fill="#c16256"/><path d="M1680.63,347.67c-1.39-1.39,.83-3.54,2.18-2.11,1.39,1.39-.83,3.54-2.18,2.11Z" fill="#c16256"/><path d="M1688.25,359.05c-2.56,.41-6.27-.26-3.85-3.33,2.28-2.32,2.54-8.62,2.54-8.68,.02-.74,1.19-.7,1.15,.04-.01,.28-.28,6.8-2.87,9.44-.29,.3-.6,.71-.38,.97,.61,.72,3.49,.84,5.15-.31,.25-.18,.62-.12,.8,.14,.43,1.2-1.64,1.46-2.53,1.73Z" fill="#c16256"/><path d="M1731.76,340.61c1.41,10.04,1.5,21.82-4.11,30.48h-.01c2.59-6.49,1.62-18.92,1.62-18.92l-3.57-4.57c-36.52-.49-41.89-28.05-41.89-28.05,16.05-21.56,46.07-2.09,47.97,21.06Z" fill="#e57d61"/><path d="M1686.59,316.1s5.43,27.13,38.49,28.77l8.86-9.18c4.12-23.62-23.96-47.8-47.34-19.6Z" fill="#c92828"/><path d="M1739.33,343.58c1.17,11.49-13.34,12.8-14.25,1.29-1.17-11.49,13.34-12.8,14.25-1.29Z" fill="#f99370"/><path d="M1735.91,340.6h0c-1.48-4.55-10.24,.31-6.51,.48,.02-.2,3.9-2.53,5.11-.51-3.83,1.81-5.1,8.94-2.89,6.63,0-.04,.47-4.11,3.47-5.64,1.49,10.37,2.85,3.18,.82-.96Z" fill="#c16256"/><path d="M1734.88,350.44c.52,1.59-1.99,2.36-2.46,.76-.52-1.59,1.99-2.36,2.46-.76Z" fill="#f4d4be"/><path d="M1698.48,445.04c.05,3.33-5.18,3.33-5.13,0-.05-3.33,5.18-3.33,5.13,0Z" fill="#23659b"/><path d="M1693.44,463.1c.05,3.33-5.18,3.33-5.13,0-.05-3.33,5.18-3.33,5.13,0Z" fill="#23659b"/><path d="M1693.44,479.35c.05,3.33-5.18,3.33-5.13,0-.05-3.33,5.18-3.33,5.13,0Z" fill="#23659b"/><path d="M1605.3,757.25c.47,8.06,.9,12.93,.9,12.93-29.01,9.34-44.6,0-44.6,0,0,0-.81-4.05-2.06-11.02,.35,.17,18.59,9.14,45.76-1.91Z" fill="#23659b"/><path d="M1669.82,770.18c-29.01,9.34-44.6,0-44.6,0,0,0-1.06-3.73-2.7-10.18,0,0,16.08,8.32,45.79,0,.88,6.37,1.52,10.18,1.52,10.18Z" fill="#23659b"/><path d="M1687.23,547.24c-5.71,.18,15.07-14.08,21.27-10.59,.05,.5-.31,.95-.82,1-11.69,1.22-19.47,9.55-20.45,9.59Z" fill="#e57d61"/><path d="M1696.03,547.56c-4.33-1.85,9.12-5.02,15.78-6.82,.49-.1,.98,.22,1.08,.71,.1,.49-.22,.98-.71,1.08-7.1,1.46-15.44,4.95-16.15,5.03Z" fill="#e57d61"/><path d="M1698.19,341.31c-.14,0-.28-.04-.4-.14-3.65-2.85-6.96-1.93-7.1-1.88-.34,.1-.7-.09-.81-.44-.1-.34,.09-.7,.43-.81,.16-.05,4.08-1.18,8.27,2.1,.28,.22,.33,.63,.11,.91-.13,.16-.32,.25-.51,.25Z" fill="#c16256"/><path d="M1679.11,342.88c-.13,0-.25-.04-.36-.11-.3-.2-.38-.6-.17-.9,.09-.13,2.11-3.08,5.49-2.95,.36,.01,.64,.32,.62,.67s-.31,.64-.67,.62c-2.65-.09-4.34,2.35-4.36,2.38-.13,.19-.33,.29-.54,.29Z" fill="#c16256"/><path d="M1693.14,365.19c-.85,0-1.59-.3-2.07-.91-1.01-1.3-.34-3.45,1.52-4.89,1.86-1.44,4.1-1.54,5.11-.24h0c1.01,1.3,.34,3.45-1.52,4.89-.99,.76-2.08,1.15-3.04,1.15Zm2.49-5.64c-.64,0-1.46,.27-2.24,.87-1.35,1.04-1.76,2.45-1.28,3.06,.47,.61,1.94,.57,3.29-.47,1.35-1.04,1.76-2.45,1.28-3.06h0c-.2-.26-.58-.4-1.05-.4Z" fill="#c16256"/></g><g id="m"><path d="M3230.24,1661.76l1.12-.59c0,.78,.97,3.51,1.76,3.51l33.16,.68c.78,0,1.27-1.48,1.27-2.26l2.83-.81c0-4.97-.41-6.77-2.6-10.61-8.06-10.71,1.56-58.63,1.28-71.15,1.99-3.42-34.92-.74-35.43-1.55-.83,0-1.48,.71-1.42,1.53l4.34,54.75c1.95,10.4-6.03,16.68-6.31,26.48Z" fill="#f99370"/><path d="M3066.24,1666.54h66.05c5.77-.23,5.72-6.11,4.66-10.67-3.64-16.44,2.79-54.18,3.98-71.08,.32-3.1-2.11-5.79-5.22-5.79-48.74-.5-32.84-4.4-29.06,48.17,2.88,18.36-19.02,21.86-31.51,23.89-8.22,.6-21.97,11.82-8.9,15.47Z" fill="#f99370"/><path d="M3139.46,1659.68c-.18,3.24-1.78,6.93-5.53,6.85h-68.51c-16.16-5.99,8.05-27.43,39.68-27.3,22.49,6.17,35.12-11.36,34.36,20.45Z" fill="#103663"/><path d="M3265.12,1666.54h-29.28c-14.27-1.95-3.99-29.33,14.64-27.35,18.68-2.36,28.9,25.43,14.64,27.35Z" fill="#103663"/><path d="M3081.74,1657.27c-.57,0-1.12-.34-1.35-.91-2.63-6.5-7.38-8.48-7.58-8.57-3.7-5.84,7.06-1.68,10.28,7.47,.4,.93-.34,2.02-1.35,2Z" fill="#e8c0a6"/><path d="M3093.06,1655.9c-.62,0-1.2-.4-1.39-1.03-2.33-7.52-8.88-11-8.94-11.03-3.36-6.79,9.15,.48,11.73,10.17,.3,.91-.43,1.9-1.39,1.89Z" fill="#e8c0a6"/><path d="M3105.93,1654.32c-.6,0-1.17-.38-1.38-.98-2.72-7.81-9-12.07-9.06-12.11-3.71-10.03,16.79,10.41,10.43,13.09Z" fill="#e8c0a6"/><path d="M3260.97,1647.89c-8.13-4.93-20.61-.49-20.66-.13-8.49-1.83,11.59-9,21.39-2.58,1.28,.69,.69,2.77-.74,2.71Z" fill="#e8c0a6"/><path d="M3060.62,1659.68h78.84c-.29,2.41-.95,4.74-2.16,6.85h-71.88c-3.54,0-6.05-3.54-4.79-6.85Z" fill="#0f2e54"/><path d="M3265.12,1666.54h-29.28c-3.73,0-6.72-3.13-6.49-6.85h42.27c.23,3.72-2.77,6.86-6.49,6.85Z" fill="#0f2e54"/><path d="M3101.5,996.53s-7.17-20.12,9.9-29.9l12.95,6.7-22.85,23.2Z" fill="#c92828"/><path d="M3113.37,1158.91c-64.47,49.22-145.19,38.22-190.93,3.98l-2.39-23.39c105.5,8.17,131.14-42.42,199.04-73.13,0,0-5.01,90.96-5.73,92.53Z" fill="#3a72aa"/><path d="M3275.43,1601.78c-.11,4.59-.24,9.22-.39,13.93,0,0-24.84,16.39-49.33,4.94-9.58-52.17-30.02-163.94-50.64-298.71-.26-3.96-37.38,180.7-24.57,302.98,0,0-27.55,7.11-52.4-2.21-17.46-62.39-18.07-175.6-5.59-412.47,0,0,74.61-4.2,128.88-31.12,46.77,54.25,59.69,332.11,54.05,422.66Z" fill="#9358e0"/><path d="M3125.54,1063.96c-3.09-16.35-10.6-45.78,1.7-53.03,8.66-4.74,20.87,1.26,19.79,12.1-.92-.38,1.39,29.63,4.62,37.53,25.51,3.19-43.48,39.45-26.1,3.4Z" fill="#f99370"/><path d="M3147.05,1021.64c.01,.46,0,.93-.02,1.39-.67-.3,.4,16.3,2.38,28.14-10.27,6.93-23.05,6.8-25.4,6.72-1.87-17.42-8.54-38.96,3.23-46.96,8.06-5.18,19.74,.99,19.81,10.72Z" fill="#e57d61"/><path d="M3114.68,1618.01c-30.68-143.1,.53-330.96,5.22-332.33,2.4,1.12-24.86,189.91-5.22,332.33Z" fill="#7640cc"/><path d="M3249.45,1619.92c-24.8-157.1-52.5-339.65-49.03-342.36,3.6,.51,31.76,186.49,49.03,342.36Z" fill="#7640cc"/><path d="M3162.7,1007.79c.08,11.91-1.63,25.63-9.49,34.84h-.01c-.32,.37-.64,.72-.99,1.07,0,.01-.01,.01-.01,.03-11.9,11.28-30.75,13.28-45.82,4.62h-.01c-12.12-8.02-17.66-20.64-13.86-31.72,2.6-6.59,8.36-12.98,9-20.11,3.88-43.24,60.93-34.8,61.2,11.27Z" fill="#f99370"/><path d="M3117.26,1008.1c-1.4-1.84,1.52-3.99,2.86-2.12,1.4,1.84-1.52,3.99-2.86,2.12Z" fill="#c16256"/><path d="M3102.09,1008.11c-1.4-1.84,1.52-3.99,2.86-2.12,1.4,1.84-1.52,3.99-2.86,2.12Z" fill="#c16256"/><path d="M3162.7,1007.79c.08,11.91-1.63,25.63-9.49,34.84h-.01c-.32,.37-.64,.72-.99,1.07,9.33-18.68,6.82-22.53,2.62-35.52-13.75-9.78-13.26-23.13-26.13-23.07-12.87,.04-23.37-1.71-23.37-1.71,14.43-30.73,57.56-12.95,57.38,24.39Z" fill="#e57d61"/><path d="M3108.76,1022.55c-2.93-.08-6.69-1.42-3.52-4.48,3.01-2.35,4.29-9.64,4.3-9.71,3-2.79-.05,8.14-3.47,10.77-2.33,2.03,3.35,2.66,5.45,1.5,3.04,.48-1.45,2.31-2.76,1.92Z" fill="#c16256"/><path d="M3248.19,1259.76c-36.12,27.33-121.81,34.44-157.88,21.38-12.16-5.15-13.86-46.1-12.45-86.31,2.16-53.61,15.23-92.36,39.97-128.19,.3-.12,5.01-2.21,7.7-2.67-.12,4.9,1,19.05,26.11-3.42,.11,.1,7.5-.89,9.8,.1,2.41,1.83,29.6,19.51,30.29,22.39,2.05,8.6,11.23,29.89,21.27,54.7,11.61,29.01,23.5,58.74,28.61,85.91,1.99,11.3,13.73,25.46,6.57,36.11Z" fill="#23659b"/><path d="M3164.75,991.73c-4.04-34.07-25.11-33.04-25.11-33.04h0c-18.13-24.14-58.55-12.04-41.72,15.1,9.55,16.72,33.97-1.92,48.39,19.5,5.79,8.61,9.38,13.92,19.43,18.33,0,0,1.32-10.67-.98-19.89Z" fill="#c92828"/><path d="M3171.04,1012.41c-.41,13.55-17.5,12.84-16.79-.7,.41-13.55,17.5-12.84,16.79,.7Z" fill="#f99370"/><path d="M3109.19,1032.22c-2.42,.23-4.6-1-2.39-1.6,.28,.07,6.86,1.76,13.76-4.64,.27-.25,.7-.24,.95,.04-2.04,5.13-10.34,6.16-12.31,6.2Z" fill="#c16256"/><path d="M3161.08,1060.83c-8.27,14.1-44.76,36.06-43.26,5.83,.31-.14,5-2.22,7.71-2.68-.06,.79-1.49,21.59,26.12-3.42-.03,.21,7.36-1.12,9.43,.27Z" fill="#3a72aa"/><path d="M3150.5,1624.92s-27.55,7.11-52.4-2.21c0,0-1.63-4.76-4.2-14.2,0,0,32.04,11.93,55.15,0,.44,5.5,.93,10.98,1.45,16.42Z" fill="#7640cc"/><path d="M3275.43,1601.78c-.11,4.59-.24,9.22-.39,13.93,0,0-24.84,16.39-49.33,4.94,0,0-.8-4.29-2.24-12.14,0,0,26.37,7.87,51.96-6.72Z" fill="#7640cc"/><path d="M3208.44,1074.74s36.65,28.98,44.97,76.58c12.95,74.08-22.27,114.52-97.67,135.02,0,0-2.36-9.32-12.5-12.3,0,0,36.1-27.87,45.19-61.21,9.09-33.34,4.69-81.44-12.65-100.33,0,0,13.61-31.17,32.67-37.76Z" fill="#3a72aa"/><path d="M3183.16,1064.41c-8.14-8.79-22.75-9.41-25.29-1.09-8.04,26.28-19.72,50.07-23.67,57.79-1.19-.78-2.81-1.13-4.18-1.19-18.77-26.81-14.56-51.76-14.56-51.76-11.66-.8-19.3,3.71-23.45,10.81-20.26,7.44-17.81,23.42,.71,35.45,4.33,9.53,11.64,18.05,21.41,22.63-7.08,16.23-15.64,41.88-5.91,46.8,4.39,4.15,15.24,6.02,15.51-6.09,.22-10.01,.77-25.26,1.99-34.7,1,.14,2.12,.07,3.38-.27-.01,0,1.44,33.49-4.08,54.44-5.52,20.94,20.4,16.96,28.91,10.1,6.68-5.39,.83-47.96-8.89-70.98,5.87-3.21,11.87-7.98,17.47-13.55h0c10.56-10.68,83.57-51.81,20.67-58.39Z" fill="#1d3f70"/><g><rect x="3033.59" y="1024" width="26.7" height="437.27" transform="translate(245.97 2969.63) rotate(-53.84)" fill="#eb5648"/><rect x="3117.72" y="1189.67" width="26.7" height="228.88" transform="translate(230.83 3062.77) rotate(-53.84)" fill="#ce3932"/><circle cx="2740.02" cy="1020.04" r="160.51" transform="translate(81.26 2236.25) rotate(-45)" fill="#fff" opacity=".4"/><path d="M2576.31,1078.38c5.63,15.89,13.6,31.05,23.81,44.89l9.54-9.54,9.6-9.6,204.86-204.86,19.14-19.14c-.61-.45-1.23-.89-1.84-1.34-13.54-9.72-28.01-17.21-42.98-22.54l-10.52,10.53-10.82,10.82h0l-179.42,179.42-10.85,10.85-10.49,10.5Z" fill="#fff" opacity=".4"/><path d="M2616.14,1142.04c6.82,6.93,14.33,13.37,22.49,19.23,13.94,10.01,28.89,17.66,44.34,23.02l10.58-10.58,10.89-10.89,178.38-178.39,10.84-10.84,10.63-10.63c-8.73-25.29-23.12-48.07-42.26-66.84l-18.89,18.89-208.13,208.13-9.45,9.45-9.43,9.43Z" fill="#fff" opacity=".4"/><path d="M2682.97,1184.28c117.7,45.62,253.67-66.51,228.61-192.41-22.41-149.91-224.16-199.04-312.79-73.23-68.69,92.36-22.66,230.76,84.17,265.64Zm160.18-269.27c106.59,104.39,4.4,283.96-138.71,247.8-50.82-11.87-94.4-54.86-106.78-105.78-37.72-142.71,140.23-245.79,245.49-142.02Z" fill="#ce3932"/></g><g><path d="M2907.3,1161.2c-6.79,5.48-12.79-3.97-3.3-5.03l-.12,.09c3.72-2.91,6.97,2.3,3.42,4.94Z" fill="#f99370"/><path d="M2902.54,1157.76c-8.8,4.74-11.33-7.16-2.8-5.57-.19,.01,.81-.2,.63-.18,4.27-2.13,5.96,3.98,2.17,5.75Z" fill="#f99370"/><path d="M2897.43,1154.31l-3.27,.63c-4.6,.72-3.99-5.99-.14-6.47l3.27-.63c4.6-.72,3.99,5.99,.14,6.47Z" fill="#f99370"/><path d="M2893.46,1150.63l-3.27,.63c-4.6,.72-3.99-5.99-.14-6.47l3.27-.63c4.6-.72,3.99,5.99,.14,6.47Z" fill="#f99370"/></g><path d="M3116.64,1278.46l6.42,4.62-.09,.13c-2.77,4.23-6.51,7.73-10.88,10.26-4.23,2.45-8.39,4.88-13.05,6.77-6.11,9.16,18.92-1.92,22.03-2.56l.05,.11c-5.74,5.03-11.79,9.73-18.23,13.84-4.13,10.95,20.03-7.47,22.92-9.12l.03,.05c-4.54,5.71-9.82,10.83-15.62,15.26-3.18,11.46,19.82-9.24,22.05-11.77l.08,.03c-2.88,5.06-6.44,9.73-10.23,14.15-1.51,11.27,15.77-9.79,17.5-12.32,1.82-1.01,10.76-9.44,16.11-21.58,1.75-3.98-8.94-14.52-12.5-12.3-2.67,1.67-11.31,1.67-13.18,2.21-4.37,.61-8.89,.49-13.4,2.2Z" fill="#f99370"/><path d="M3125.14,1003.49c.16,0,.32-.06,.45-.18,.27-.25,.29-.67,.04-.94-4.03-4.39-9.73-4.09-9.96-4.08-.37,.02-.65,.34-.62,.71,.02,.37,.35,.64,.71,.63,.05,0,5.31-.26,8.9,3.65,.13,.14,.31,.22,.49,.22Z" fill="#c16256"/><path d="M3101.72,1001.56c.14,0,.29-.05,.41-.14,.03-.02,3.14-2.43,6.88-1.8,.36,.06,.71-.18,.77-.55,.06-.36-.18-.71-.55-.77-4.33-.73-7.78,1.96-7.93,2.07-.29,.23-.34,.65-.11,.94,.13,.17,.33,.25,.52,.25Z" fill="#c16256"/><path d="M3158.95,1007.74c-.47-1.38,3.81-3.12,6.9-1.55,1.58,.71,3.69,6.44,1.37,9.65-.4,0-.72-.36-.67-.76,.37-2.82,.24-4.95-.35-6.33-.05,.03-.11,.06-.17,.08-.18,.04-4.46,1.06-5.55,7.15-.06,.36-.38,.61-.73,.61-.04,0-.09,0-.13-.01-.4-.07-.67-.46-.6-.86,1.08-6.05,5-7.81,6.28-8.23-.06-.05-.12-.12-.19-.16-2.93-1.66-5.1,1.6-6.16,.42Z" fill="#c16256"/></g><g id="n"><path d="M1298.83,1662.74l-1.09-.57c0,.76-.94,3.4-1.7,3.4l-32.13,.66c-.76,0-1.23-1.43-1.23-2.19l-2.74-.78c-.22-9.91,7.84-16.31,5.89-26.64,0,0-10.19-183.68-7.13-265.34,.74-19.82,78.55-32.86,77.61-22.49-6.97,76.63-43.59,288.3-43.59,288.3-.44,5.56,.62,11.21,3.25,15.87,2.12,3.73,2.86,4.97,2.86,9.78Z" fill="#f99370"/><path d="M1438.09,1667.36h-63.99c-2.92,0-5.23-2.45-5.08-5.37,7.08-32.45-25.36-199.11-25.21-313.62,0-3.01,69.37,5.09,72.33,39.76,5.33,62.44-17.2,241.11-17.2,241.11-2.14,18.71,17.8,20.66,30.53,23.14,5.06,1.27,10.36,3.25,12.82,7.02,2.3,3.38-.11,7.96-4.2,7.96Z" fill="#f99370"/><path d="M1253.89,1604.69c.33,10.78,.55,17.16,.55,17.16,26.6,10.95,54.1,.69,54.1,.69l1.85-15.82,29.25-249.95c9.76,84.15,14.65,203.39,16.21,247.66,.39,11.05,.57,17.42,.57,17.42,3.56,.82,7.02,1.46,10.36,1.93,25.44,3.61,43.6-1.93,43.6-1.93,0,0,.75-6.26,1.88-17.42,5.05-49.76,17.75-196.95,6.16-322.18-6.1-65.93-161.01-36.71-161.01-36.71,0,0-3.84,24.46-6.01,179.79-.82,58.97,1.42,143.49,2.5,179.37Z" fill="#eb5648"/><path d="M1396.43,1615.02l-5.86-.61c18.78-181.19,.2-324.3,.01-325.72l5.84-.78c.19,1.43,18.87,145.18,.01,327.11Z" fill="#ce3932"/><path d="M1285.07,1616.12l-5.85-.64c9.37-85.56,28.05-322.9,28.24-325.29l5.87,.46c-.19,2.39-18.88,239.82-28.26,325.47Z" fill="#ce3932"/><path d="M1349.34,1139.66c124.11,9.96,185.07-105.98,33.67-129.88-6.81-.55-18.16-3.26-18.87,6.68-.12,3.08,1.57,5.75,4.11,7.14,15.02,9.11,62.21,26.76,55.08,46.34-4.75,13.07-49.73,15.11-73.19,17.52-34.16-.37-34.93,51.54-.8,52.21Z" fill="#f99370"/><path d="M1418.42,1282.25s-4.34,7.47-16.45,13.2c-12.11,5.73-34.44,15.68-43.04,15.29s-8.18-10.42-15.11-11.28-3.5,7.98-12.09,11.29c-8.59,3.31-38.87-.45-77.28-20.33v-21.89l163.97,13.72Z" fill="#f4d4be"/><path d="M1346.87,1086.16l38.84,41.52,10.72,11.45c18.23,.83,42.44-8.17,60.35-22.28,0,0,.03-.02,.03-.02,21.38-16.86,33.76-40.98,16.22-64.31-32.24-42.89-90.02-42.74-90.02-42.74-13.37,5.22-11.23,16.62-11.23,16.62,61.75,30.69,51.01,56.13,21.72,54.56-29.29-1.56-46.63,5.19-46.63,5.19Z" fill="#3a72aa"/><path d="M1385.71,1127.68l10.72,11.45c18.23,.83,42.44-8.17,60.35-22.28-20.14,12.42-50.74,18.52-54.81,14.65-4.07-3.86-14.71-13.21-14.71-13.21l-1.54,9.39Z" fill="#23659b"/><path d="M1255.62,1279.7c5.87,1.65,11.63,3.11,17.28,4.38,86.37,19.63,145.52-1.83,145.52-1.83-4.48-66.65-8.35-170.7-62.92-193.86-9.03-4.27-25.63-.88-34.15-1.28-13.66,9.77-25.11,26.75-34.43,46.92-22.5,48.74-32.56,116.13-31.29,145.67Z" fill="#3a72aa"/><path d="M1367.15,1660.72c.12,1.03,.32,2.04,.6,3.03,.6,2.13,2.55,3.6,4.76,3.6h66.38c3.38,0,5.81-3.33,4.69-6.52-.01-.04-.03-.08-.04-.11-2.58-7.24-10.66-18.08-42.02-19.85-.48-.03-2.03,.06-2.49,.17-2.36,.57-14.98,1.67-28.22-.17,0,0-1.87,1.64-2.63,3.91-1.3,3.89-1.73,10.12-1.02,15.94Z" fill="#1d3f70"/><path d="M1265.04,1667.36h28.37c3.57,0,6.45-2.96,6.3-6.52v-.11c-.36-7.8-3.66-19.7-20.48-19.85-16.88-.15-20.14,11.96-20.48,19.85v.14c-.14,3.56,2.73,6.5,6.29,6.5Z" fill="#1d3f70"/><path d="M1443.54,1660.72h-76.38c.28,2.33,.93,4.59,2.09,6.64h69.65c3.38,0,5.81-3.33,4.69-6.52-.01-.04-.03-.08-.04-.11Z" fill="#395b96"/><path d="M1265.04,1667.36h28.37c3.57,0,6.45-2.96,6.3-6.52v-.11h-40.96v.14c-.14,3.56,2.73,6.5,6.29,6.5Z" fill="#395b96"/><path d="M1368.82,1023.63s-7.78-1.64-9.81-5.89c-5.04-10.57-16.84-23.58-16.84-23.58,0,0,4.16-3.21,10.98-1.11,6.83,2.11,20.31,15.98,20.31,15.98l-4.65,14.59Z" fill="#f99370"/><path d="M1289.46,1324.5c-2.82,2.25-6.97-3.68-10.26-4.18,.55,5.09,2.73,9.98,2.71,10.01,3.71,5.21,7.7,10.18,11.96,14.98,1.06,9.43-14.21-8.95-16.45-10.69-.03,.02-.06,.03-.09,.05,2.5,6.14,5.38,12.14,8.8,17.82-.9,10.25-12.98-13.74-14.45-16.05h-.05c1.26,6.2,3.36,12.21,6.14,17.89-2.17,10.05-11.91-14.86-12.68-17.74h-.08c.21,5.01,1.12,9.99,2.31,14.88-3.41,9.24-8.49-13.66-8.84-16.36-1.03-1.49-4.67-11.49-3.92-22.89,.24-3.74,13.55-7.5,15.47-4.39,1.44,2.33,7.82,5.69,9.08,6.85,2.86,1.88,11.78,6.04,10.36,9.83Z" fill="#f99370"/><path d="M1252.03,1310.73s0,0,0,.02c1.07,1.33,2.14,2.63,3.24,3.9l14.73-6.83s-.37-.87-.97-2.53c0,0,0-.03-.02-.07-3.31-9.28-13.38-42.6-6.03-87.01,7.87-47.52,45.47-74.81,50.39-121.89,.3-2.84,7.91-6.21,7.95-9.21,0,0-8.93,3.07-11.09,3.37-10.94,1.51-42.35,8.08-65.08,46.82-42.63,72.67-24.59,134.35,6.87,173.42Z" fill="#f99370"/><path d="M1255.62,1279.7c5.87,1.65,11.63,3.11,17.28,4.38-3.09-21.79-2.13-50.48,1.45-70.97,4.05-23.19,30.45-68.21,30.45-68.21l-17.89-10.88c-22.5,48.74-32.56,116.13-31.29,145.67Z" fill="#23659b"/><path d="M1252.03,1310.73s0,0,0,.02c0,0,6.44-4.8,17-5.46,0,0,0-.03-.02-.07-.66-2.36-17.67-65.01,5.32-113.52,21.47-45.28,54.23-62.46,46.99-91.98-.66-2.73,1.25-9.7,0-12.6-10.94,1.51-56.82,10.04-79.55,48.79-42.63,72.67-21.21,135.75,10.25,174.82Z" fill="#3a72aa"/><path d="M1359.02,1017.74s3.62-20.42-14.3-27.03l-11.32,8.5,25.62,18.52Z" fill="#1d3f70"/><path d="M1346.87,1086.15c.25-1.89,.41-3.93,.49-6.06,.49-12.32-1.43-27.59-2.43-33.3-.27-1.55-.47-2.39-.55-2.29-.09-.36-.19-.72-.31-1.07-1.32-4.14-4.13-6.65-7.38-7.77h0c-4.81-1.64-10.6-.25-14.14,3.39-.07,.07-.14,.16-.21,.23-2.24,2.41-3.49,5.76-2.89,9.83,.03,.18,.05,.38,.09,.56,.04,.26,.1,.51,.16,.76,.59-.39,2.25,15.66,2.26,27.32,0,3.84-.18,7.21-.63,9.35-23.91,7.17,36.22,15.56,25.54-.95Z" fill="#f99370"/><path d="M1319.45,1049.12c.03,.18,.05,.38,.09,.56,.04,.26,.1,.51,.16,.76,.59-.39,2.25,15.66,2.26,27.32,10.95,4.98,23.17,2.79,25.4,2.33,.49-12.32-1.43-27.59-2.43-33.3-.3-1.34-.51-2.12-.55-2.29-.09-.36-.19-.72-.31-1.07-1.22-3.66-3.99-6.43-7.38-7.77h0c-2.35-.92-5-1.15-7.64-.52-2.61,.64-4.84,2.03-6.5,3.91-.07,.07-.14,.16-.21,.23-2.24,2.66-3.38,6.2-2.89,9.83Z" fill="#e57d61"/><path d="M1302.24,1038.39c1.84,11.41,5.69,24.27,14.71,31.82h.01c3.67,3.04,8.07,4.94,12.78,5.88,26.37,7.62,57.98-23.77,37.05-46.05-7.05-6.44-8.63-17.14-13.63-24.14-22.36-29.98-57.09,1.48-50.92,32.49Z" fill="#f99370"/><path d="M1345.8,1031.35c.43-.85,.09-1.89-.76-2.32-.85-.43-1.89-.09-2.32,.76s-.09,1.89,.76,2.32c.85,.43,1.89,.09,2.32-.76Z" fill="#c16256"/><path d="M1360.32,1028.91c.43-.85,.09-1.89-.76-2.32-.85-.43-1.89-.09-2.32,.76s-.09,1.89,.76,2.32c.85,.43,1.89,.09,2.32-.76Z" fill="#c16256"/><path d="M1302.24,1038.39c.13,.94,.27,1.87,.44,2.81,.16,.86,.34,1.73,.54,2.6,.03,.12,.06,.22,.07,.33,.22,.91,.44,1.79,.66,2.66,.16,.58,.32,1.15,.49,1.72,.18,.64,.38,1.27,.58,1.88,.69,2.2,1.44,4.28,2.28,6.22,.56,1.3,1.16,2.55,1.79,3.74,2.15,3.98,4.72,7.28,7.85,9.86h.01c.75,.62,1.53,1.2,2.35,1.72-6.86-6.81-10.84-21.41-10.84-21.41l1.61-12.36c11.07-11.22,6.31-23.83,6.31-23.83,18.52,5.19,24.76-6.23,24.76-6.23,5.85,.75,12.01-2.2,12.01-2.2-.5-.76-1.03-1.49-1.56-2.18-1.3-1.67-2.69-3.13-4.16-4.37-1.33-1.12-2.73-2.06-4.21-2.83-.99-.52-2.02-.95-3.08-1.29-.1-.03-.2-.07-.3-.1-2.44-.75-5.06-1.08-7.88-.95-1.92,.07-3.92,.36-6.02,.85-4.87,1.14-9.18,3.57-12.75,7-.14,.14-.27,.27-.42,.41-2.55,2.55-4.71,5.59-6.43,9.02-3.8,7.6-5.4,17.05-4.12,26.93Z" fill="#e57d61"/><path d="M1307.92,1008.66s13.5,6.12,.5,26.87l-8.46,7.02s-19.18-30.22,7.97-33.88Z" fill="#1d3f70"/><path d="M1354.83,1043.93c2.3,0,4.81-1,5.4-2.39,.19-.46,.46-1.62-1.32-2.59-3.27-1.77-5.66-8.53-5.69-8.6-.12-.34-.49-.52-.83-.4-.34,.12-.52,.49-.4,.83,.1,.3,2.59,7.31,6.3,9.32,.42,.23,.89,.57,.74,.92-.42,.99-3.53,2.09-5.72,1.39-.35-.11-.71,.08-.82,.42-.11,.34,.08,.71,.42,.82,.59,.19,1.24,.27,1.92,.27Z" fill="#c16256"/><path d="M1294.99,1044.15c1.16,5.48,5.67,9.16,10.08,8.23,4.41-.93,7.04-6.13,5.88-11.6s-5.67-9.16-10.08-8.23c-4.41,.93-7.04,6.13-5.88,11.6Z" fill="#f99370"/><path d="M1299.11,1046.83c.06,0,.13,0,.19-.03,.35-.11,.54-.47,.43-.82-1.17-3.85-1.13-6.49,.12-7.66,1.66-1.54,5.09-.24,5.12-.23,.34,.13,.72-.04,.85-.37,.13-.34-.03-.71-.37-.85-.17-.07-4.22-1.62-6.48,.48-1.67,1.55-1.83,4.58-.48,9,.09,.28,.35,.46,.62,.46Z" fill="#c16256"/><path d="M1305.21,1045.92c.09,0,.17-.02,.26-.05,.33-.14,.49-.52,.35-.86-.1-.23-2.4-5.52-7.4-5.85-.35-.02-.67,.25-.7,.61-.02,.36,.25,.67,.61,.7,4.19,.28,6.26,5.01,6.28,5.06,.11,.25,.35,.4,.6,.4Z" fill="#c16256"/><path d="M1307.49,988.65c.66-.85,1.47-1.67,2.44-2.42,9.19-7.12,13.53-19.14,13.53-19.14,0,0,5.8,7.29,7.97,15.85,3.76-4.63,7.22-9.46,9.76-14.12,0,0,3.7,5.11,5.14,12.37,6.6-6.04,14.18-7.35,14.18-7.35,8.79,24.54-11.13,28.91-19.89,29.67-8.74,10.08-24.12,11.05-32.8,6.98l-10.18,13.15c-16.12-24.79,1.74-32.75,9.84-34.98Z" fill="#1d3f70"/><path d="M1339.64,1356.77c9.76,84.15,14.65,203.39,16.21,247.66,.39,11.05,.57,17.42,.57,17.42,3.56,.82,7.02,1.46,10.36,1.93h.03s-.16-6.31-.45-16.85c-1.37-49.25-5.57-191.05-9.29-214.14-4.51-28.02-17.43-36.02-17.43-36.02Z" fill="#ce3932"/><path d="M1355.85,1604.43c.39,11.05,.57,17.42,.57,17.42,3.56,.82,7.02,1.46,10.36,1.93,25.44,3.61,43.6-1.93,43.6-1.93,0,0,.75-6.26,1.88-17.42,0,0-15.89,8.34-45.9,2.5-3.32-.65-6.83-1.47-10.51-2.5Z" fill="#ce3932"/><path d="M1253.89,1604.69c.33,10.78,.55,17.16,.55,17.16,26.6,10.95,54.1,.69,54.1,.69l1.85-15.82s-28.85,11.1-56.49-2.03h0Z" fill="#ce3932"/><path d="M1346.87,1086.15s4.78-3.7,10.93-2.91c0,0,8.47,14.21-4.42,21.73,0,0-2.13-6.64-8.69-7.85,0,0,2.02,6.31,1.29,10.18,0,0-17.64-.69-29.01-10.02-4.01-3.29-6.78-8.04-6.78-8.04,0,0,5.04-3.57,11.14-2.13,0,0,10.39,8.26,20.19,6.93,8.26-1.12,5.35-7.88,5.35-7.88Z" fill="#f4d4be"/><path d="M1351.66,1056.26c-1.45,0-3.06-1.01-4.03-2.7h0c-1.31-2.26-.99-4.9,.7-5.87,1.69-.98,4.13,.07,5.44,2.33,1.31,2.26,.99,4.9-.7,5.87-.43,.25-.91,.37-1.41,.37Zm-2.94-3.33c.94,1.63,2.64,2.48,3.71,1.87,1.07-.62,1.18-2.52,.24-4.15-.94-1.63-2.64-2.49-3.71-1.87-1.07,.62-1.18,2.52-.24,4.15h0Z" fill="#c16256"/><path d="M1337.2,1029.47h-.03c-.35-.02-.62-.31-.6-.66,.34-7.81,6.35-10.54,6.61-10.65,.32-.14,.69,0,.83,.32,.14,.32,0,.69-.32,.83-.23,.1-5.55,2.54-5.85,9.55-.01,.34-.29,.6-.63,.6Z" fill="#c16256"/><path d="M1359.32,1023.67c-.18,0-.35-.07-.48-.22-.04-.04-3.6-4.08-8.15-4.08-.35,0-.63-.28-.63-.63s.28-.63,.63-.63c5.13,0,8.94,4.33,9.1,4.51,.23,.26,.2,.66-.06,.89-.12,.1-.27,.15-.41,.15Z" fill="#c16256"/></g><g id="o"><g><path d="M890.37,1662.88l-38.93,.52c0-4.81,.4-6.55,2.52-10.28,7.82-10.38-1.52-56.8-1.25-68.93-1.81-3.32,33.8-.71,34.37-1.5,.8,0,1.44,.69,1.37,1.49l-4.21,53.05c-1.89,10.07,5.85,16.16,6.12,25.65Z" fill="#f99370"/><path d="M1034.13,1667.5h-64.07c-2.93,0-5.23-2.45-5.09-5.37,.07-1.41,.24-3.08,.57-4.97,.93-5.34,1.31-10.75,1.22-16.16-.04-2.59-.2-5.18-.47-7.76l-4.61-44.94c-.31-3,2.05-5.61,5.07-5.61h28.27c3.06,0,5.44,2.68,5.05,5.72l-5.14,40.95c-1.13,8.96,4.65,17.32,13.43,19.5,6.25,1.55,12.6,2.49,17.14,3.65,.59,.16,1.17,.31,1.73,.47h0c4.81,1.37,8.79,3.17,11.1,6.55,2.3,3.38-.11,7.96-4.21,7.96Z" fill="#f99370"/><path d="M963.11,1660.86c.17,3.14,1.73,6.72,5.37,6.64h66.45c3.43,0,5.87-3.43,4.65-6.64-2.58-7.25-11.74-18.04-43.14-19.82-4.51,.44-14.79,1.98-29.67-.04,0,0-5.11,8.02-3.65,19.86Z" fill="#103663"/><path d="M856.54,1667.5h28.4c3.57,0,6.46-2.96,6.3-6.52v-.11c-.36-7.8-3.67-19.7-20.5-19.86-16.9-.15-20.16,11.96-20.5,19.86v.14c-.14,3.56,2.74,6.5,6.3,6.5Z" fill="#103663"/><path d="M1019.09,1658.52c-.18,0-.36-.03-.53-.1-.72-.29-1.07-1.11-.78-1.84,3.03-7.47,8.69-9.77,8.93-9.86,.73-.28,1.54,.07,1.83,.79,.29,.72-.07,1.54-.79,1.83h0c-.19,.08-4.8,2.01-7.35,8.3-.22,.55-.75,.88-1.31,.88Z" fill="#e8c0a6"/><path d="M1008.12,1657.2c-.14,0-.28-.02-.42-.06-.74-.23-1.16-1.02-.93-1.77,2.61-8.4,9.77-12.2,10.07-12.36,.7-.36,1.54-.09,1.9,.6,.36,.69,.09,1.54-.6,1.9-.06,.03-6.44,3.44-8.68,10.69-.19,.6-.75,.99-1.35,.99Z" fill="#e8c0a6"/><path d="M995.63,1655.66c-.15,0-.31-.03-.46-.08-.74-.26-1.12-1.06-.87-1.8,2.96-8.5,9.61-12.97,9.9-13.15,.65-.43,1.52-.25,1.95,.4,.43,.65,.25,1.52-.39,1.96-.06,.04-6.15,4.16-8.79,11.73-.2,.58-.75,.95-1.33,.95Z" fill="#e8c0a6"/><path d="M860.56,1649.44c-.48,0-.96-.25-1.22-.7-.4-.67-.17-1.54,.5-1.93,9.53-5.57,21.42-.29,21.92-.07,.71,.32,1.02,1.16,.7,1.87-.32,.71-1.16,1.02-1.87,.7-.11-.05-11.08-4.89-19.33-.07-.23,.13-.47,.19-.71,.19Z" fill="#e8c0a6"/><path d="M1039.58,1660.86h-76.47c.28,2.33,.93,4.6,2.1,6.64h69.73c3.39,0,5.81-3.33,4.69-6.52l-.04-.11Z" fill="#0f2e54"/><path d="M856.54,1667.5h28.4c3.57,0,6.46-2.96,6.3-6.52v-.11h-41.01v.14c-.14,3.56,2.74,6.5,6.3,6.5Z" fill="#0f2e54"/><path d="M845.64,1631.31s32.02,7.35,48.52-.55c0,0,.68-3.94,1.87-10.99,7-41.39,24.84-163.55,38.25-239.58,0,0,13.09,118.28,21.05,239.58,.43,6.53,.67,10.44,.64,10.99,0,0,3.95,1.32,9.79,2.5,10.39,2.11,26.75,3.77,37.32-3.28,0,0,.4-3.59,1.07-10.21,4.78-47.47,18.7-173.93-8.61-322.11,0,0-80.86,18.94-140.46,1.93,0,0-12.29,126.41-9.09,320.18,.11,6.87-.25,10.96-.34,11.53Z" fill="#1d3f70"/><path d="M990.75,1625.16s-.09,0-.14,0c-1.05-.07-1.84-.98-1.77-2.03,12.04-171.25-13.08-330.77-13.34-332.36-.17-1.04,.54-2.01,1.58-2.18,1.04-.15,2.02,.54,2.18,1.58,.26,1.6,25.44,161.54,13.37,333.23-.07,1-.91,1.77-1.9,1.77Z" fill="#103663"/><path d="M870.84,1625.16s-.05,0-.08,0c-1.05-.04-1.87-.93-1.82-1.98,7.4-176.07,33.89-332.61,34.16-334.17,.18-1.03,1.16-1.72,2.2-1.55,1.04,.18,1.73,1.16,1.56,2.2-.27,1.56-26.73,157.87-34.11,333.69-.04,1.02-.89,1.82-1.9,1.82Z" fill="#103663"/><path d="M845.64,1631.31s32.02,7.35,48.52-.55c0,0,.68-3.94,1.87-10.99,0,0-24.07,5.25-50.05,0,.31,6.86-.25,10.96-.34,11.53Z" fill="#103663"/></g><path d="M957.13,1131.62c23.91,25.53,37.89,58.59,48.64,91.29,9.2,31.64,24.8,62.35,48.8,85.36,7.72,5.83-.92,18.18-8.98,12.8-14.93-9.6-27.83-22.01-39.37-35.43-31.58-35.46-43.36-86.28-81.54-116.21-.02,.03,.15,.17,.18,.19-24.76-21.23,7.35-58.99,32.28-38Z" fill="#f99370"/><path d="M1039.71,1291.6s-1.03,9.17-13.76,14.57c-76.44-54.61-87.92-115.01-79.96-182.77,48.45,6.75,67.57,131.97,93.72,168.2Z" fill="#eb5648"/><path d="M946.97,1028.19s7.47-1.98,9.94,4.83c2.47,6.81-2.95,9.66,.66,16.01,3.61,6.35,6.41,8.05,3.78,12.59-2.63,4.54-6.52,4.14-6.41,10.68,0,0-13.99-22.25-13.68-33.8,.31-11.56,5.72-10.3,5.72-10.3Z" fill="#8c4225"/><path d="M1008.21,1291.97c-9.55-8.31-21.52-19.77-32.11-33.05l-5.06-100.03s21.21,29.93,30.65,75.17c6.26,30.07,6.84,48.76,6.52,57.92Z" fill="#d64343"/><path d="M933.74,1119.1c.24-1.8,.39-3.75,.47-5.78,.47-11.74-1.36-26.3-2.32-31.75-.26-1.47-.45-2.28-.52-2.18-.08-.35-.18-.68-.3-1.02-1.26-3.95-3.94-6.34-7.04-7.41h0c-4.59-1.57-10.11-.24-13.49,3.23-.07,.07-.13,.15-.2,.22-2.13,2.3-3.33,5.49-2.76,9.37,.03,.18,.05,.36,.08,.54,.04,.25,.09,.49,.15,.73,.56-.37,2.15,14.93,2.16,26.04,0,3.66-.17,6.87-.6,8.91-22.81,6.83,45.79,29.31,24.37-.91Z" fill="#f99370"/><path d="M907.58,1083.8c.03,.18,.05,.36,.08,.54,.04,.25,.09,.49,.15,.73,.56-.37,2.15,14.93,2.16,26.04,10.45,4.75,22.1,2.66,24.23,2.22,.47-11.74-1.36-26.3-2.32-31.75-.28-1.28-.49-2.02-.52-2.18-.08-.35-.18-.68-.3-1.02-1.16-3.48-3.81-6.13-7.04-7.41h0c-2.25-.88-4.77-1.1-7.29-.49-2.49,.61-4.62,1.94-6.2,3.72-.07,.07-.13,.15-.2,.22-2.13,2.53-3.22,5.91-2.76,9.37Z" fill="#e57d61"/><path d="M944.23,1105.47c-10.64,6.5-24.36,5.67-34.27,.78-4.15-1.96-7.78-4.74-10.46-8.4h-.01c-29.8-49.44,40.42-102.66,51.11-38.74,4.42,17.79,16.36,31.26-6.37,46.36Z" fill="#f99370"/><path d="M940.99,1089.99l-12.07-10.54s-2.72,7.34,2.25,10.76c4.74,3.27,9.83-.22,9.83-.22Z" fill="#f9f8f3"/><path d="M935.2,1068.63c.6-.69,.52-1.73-.16-2.32-.69-.6-1.73-.53-2.32,.16-.6,.69-.52,1.73,.16,2.32,.69,.6,1.73,.53,2.33-.16Z" fill="#c16256"/><path d="M949.2,1069.75c.6-.69,.52-1.73-.16-2.32-.69-.6-1.73-.53-2.32,.16-.6,.69-.52,1.73,.16,2.32,.69,.6,1.73,.53,2.32-.16Z" fill="#c16256"/><path d="M940.84,1090.6c.22,.05,.46-.01,.62-.19,.23-.26,.2-.65-.06-.88l-12.07-10.54c-.25-.22-.65-.2-.88,.06-.23,.26-.2,.65,.06,.88l12.07,10.54c.08,.07,.16,.11,.26,.13Z" fill="#c16256"/><path d="M948.17,1048.62s-6.86,2.7-12.49-.76c-5.64-3.46-8.57-2.15-9.62,2.78-1.05,4.93-9.6,1.25-11.23,3.28-1.62,2.03-1.5,6.7-4.25,9.16-2.75,2.47-13.72,3.59-13.72,3.59l-.87,11.13s-.27,15.64,5.29,22.17c-.63-.68-1.22-1.39-1.77-2.14h-.01c-2.3-3.11-3.92-6.76-4.98-10.94-.31-1.24-.57-2.54-.79-3.87-.32-1.99-.54-4.08-.66-6.28-.04-.61-.13-3-.15-3.57,0-.85,15.52-37.19,18.47-38.95,.17-.09,34.8,8.35,35.61,10.2,.33,.76,1.04,3.72,1.19,4.19Z" fill="#e57d61"/><path d="M940.63,1082.36c2.13,.54,4.69,.19,5.56-.96,.29-.38,.8-1.39-.62-2.7-2.61-2.39-3.26-9.2-3.26-9.27-.03-.34-.32-.6-.68-.56-.34,.03-.59,.33-.56,.68,.03,.3,.7,7.36,3.66,10.08,.34,.31,.69,.74,.47,1.02-.62,.82-3.75,1.11-5.62-.05-.3-.18-.68-.09-.86,.2-.18,.29-.09,.68,.2,.86,.5,.31,1.09,.54,1.71,.7Z" fill="#c16256"/><path d="M855.08,1299.59s-5.22,4.27-1.24,11.97c5.22,10.09,75,22.94,89.8,20.59,4.5-.71,7.87-9.5,8.17-13.22,0,0,7.24,11.16,14.3,10.65,7.03-.51,28.59-12.73,31.01-21.09,2.42-8.36,.68-13.04,.68-13.04l-142.73,4.14Z" fill="#e8c0a6"/><path d="M855.08,1299.59c1.14,6.64,56.05,17.45,82.86,15.08,42.71-3.76,49.32-11.05,57.6-17.01,9.92-7.14,6.54-31-.94-67.48-6.31-30.83-16.47-62.05-27.74-77.98-6.74-9.52-13.75-16.63-19.59-21.82-6.95-6.16-12.26-9.64-13.52-11.27h0c.18,.71,4.68,19.47-24.38,.9l-8.94,1.59c-39.62,41.6-56.15,115.11-45.35,177.99Z" fill="#eb5648"/><path d="M946.98,1044.44s6.74-5.04,2.46-11.07c-4.27-6.03-2.18-12.93-9.99-13.65-7.81-.72-10.83-.52-18.44-4.77-7.61-4.25-16.49,1.85-17.48,7.09-.98,5.24-11.94,2.49-15.33,9.07-3.39,6.58-2.28,9.08-3.04,12.11-.76,3.03-11.31,4.59-11.26,12.27,.05,7.69,6.39,8.1,6.39,13.03,0,4.92-5.56,11.97-.86,15.92,6.96,5.86,15.07,2.48,15.07,2.48,0,0-5.16-21.48,5.14-23.11,5.01-.79,10.11-2.27,10.21-9.43,.09-7.16,9.56-2.55,12.78-5.45,3.22-2.9,2.58-7.52,7.16-7.36,4.58,.16,6.13,6.1,17.19,2.88Z" fill="#8c4225"/><polygon points="1029.01 1212.56 1000.03 1213.7 1017.91 1158.89 1046.88 1157.74 1029.01 1212.56" fill="#163356"/><polygon points="1015.39 1156.37 1017.91 1158.89 1000.03 1213.7 997.51 1211.19 1015.39 1156.37" fill="#2e619e"/><polygon points="1044.37 1155.23 1046.88 1157.74 1017.91 1158.89 1015.39 1156.37 1044.37 1155.23" fill="#2e619e"/><path d="M1003.19,1199.79c.85-.52,1.84-1.17,2.75-1.81,.93-.64,1.84-1.31,2.75-1.99,1.81-1.37,3.55-2.81,5.23-4.32,1.67-1.52,3.25-3.12,4.73-4.79,1.45-1.69,2.77-3.48,3.91-5.35l.04-.07c.62-1.02,1.95-1.35,2.97-.73,.94,.57,1.29,1.74,.86,2.72-1.02,2.31-2.25,4.5-3.62,6.58-1.4,2.05-2.9,4.02-4.5,5.89-1.61,1.86-3.29,3.65-5.05,5.36-.88,.86-1.77,1.7-2.69,2.52-.93,.84-1.82,1.61-2.88,2.46-1.71,1.36-4.19,1.08-5.55-.63-1.36-1.71-1.08-4.19,.63-5.55,.13-.1,.26-.19,.4-.28l.03-.02Z" fill="#f99370"/><path d="M1006.38,1201.9s.16-.04,.27-.08l.35-.12c.24-.08,.49-.17,.74-.27,.5-.18,1-.42,1.51-.63,1-.47,2-.97,2.97-1.54,1.94-1.13,3.83-2.42,5.56-3.91,1.73-1.49,3.4-3.08,4.85-4.88,1.51-1.75,2.79-3.7,4.02-5.69l.06-.1c.63-1.02,1.96-1.33,2.97-.71,.94,.58,1.28,1.76,.83,2.74-1.07,2.34-2.23,4.68-3.68,6.85-1.39,2.21-3.05,4.26-4.83,6.2-1.78,1.95-3.77,3.71-5.9,5.32-1.06,.81-2.18,1.56-3.33,2.27-.59,.34-1.17,.7-1.79,1.02-.3,.17-.61,.33-.94,.48l-.5,.24c-.18,.08-.33,.15-.59,.26l-1.35,.53c-2.13,.83-4.53-.22-5.36-2.35-.83-2.13,.22-4.53,2.35-5.36,.58-.23,1.2-.31,1.78-.27Z" fill="#f99370"/><path d="M1007.36,1206.6c.9-.36,2.02-.87,3.02-1.38,1.03-.51,2.05-1.06,3.06-1.63,2.01-1.15,3.97-2.41,5.84-3.77,1.89-1.35,3.66-2.85,5.34-4.44,1.7-1.58,3.19-3.34,4.61-5.15l.07-.09c.74-.94,2.1-1.1,3.03-.37,.87,.68,1.07,1.89,.52,2.81-1.32,2.2-2.75,4.37-4.41,6.33-1.64,1.98-3.39,3.87-5.28,5.6-1.88,1.75-3.84,3.39-5.9,4.92-1.03,.76-2.08,1.51-3.16,2.22-1.1,.72-2.13,1.38-3.42,2.09-1.91,1.05-4.31,.36-5.37-1.55-1.05-1.91-.36-4.31,1.55-5.37,.14-.08,.28-.15,.43-.2l.05-.02Z" fill="#f99370"/><path d="M1007.49,1211.57c.38-.1,.92-.28,1.4-.44,.49-.17,.99-.35,1.48-.54,.99-.38,1.97-.8,2.94-1.25,1.94-.9,3.82-1.92,5.63-3.05,1.82-1.12,3.5-2.43,5.09-3.82,1.6-1.4,2.97-2.99,4.24-4.67l.08-.11c.72-.95,2.08-1.14,3.03-.42,.87,.66,1.1,1.86,.58,2.78-1.2,2.14-2.58,4.2-4.19,6.04-1.61,1.83-3.34,3.58-5.22,5.11-1.87,1.55-3.84,2.97-5.89,4.27-1.03,.64-2.07,1.26-3.14,1.85-.53,.29-1.08,.58-1.63,.86-.57,.28-1.08,.53-1.77,.83l-.06,.03c-2.01,.86-4.33-.08-5.19-2.09-.86-2.01,.08-4.33,2.09-5.19,.17-.07,.36-.14,.53-.18Z" fill="#f99370"/><path d="M990.42,1212.71s2.7-11.87,12.34-15.32c9.64-3.45,11.31-4.74,11.31-4.74l13.85,12.98s-8.47,12.01-25.7,20.53l-11.81-13.45Z" fill="#f99370"/><path d="M990.42,1212.71s4.4-18.44,14.18-23.35l-2.73,8.38-11.45,14.97Z" fill="#f99370"/><path d="M915.68,1164.22c-6.98,20.85-17.66,52-6.88,72.02,25.39,22.71,60.01-2.59,79.39-22.4,7.58-11.85,24.63-2.7,17.26,9.59-5.58,7.83-11.85,15.05-18.74,21.78-26.38,28.09-71.71,42.59-103.51,14.22-27.21-28.74-20.85-72.34-15.85-107.89,8.24-32.6,57.04-19.84,48.33,12.68Z" fill="#f99370"/><path d="M990.42,1242.28c-1.95,2.66-4.12,5.29-6.49,7.83h0c-21.91,23.56-60.29,40.15-92.94,19.95-36.17-22.38-44.09-70.89-35.99-103.01,10.31-40.89,45.44-45.45,45.44-45.45,0,0,23.78,18.85,24.19,33.19,.41,14.35-12.89,34.65-7.11,65.45,4.43,23.6,37.84,12.43,53.23,5.92h0c4.7-1.99,7.73-3.55,7.73-3.55,1.54,15.43,11.96,19.67,11.96,19.67Z" fill="#eb5648"/><path d="M900.43,1121.6c.19,1.84,.93,3.58,2.05,5.2,1.58,2.3,3.95,4.38,6.64,6.21,8.84,6.04,21.21,9.46,21.21,9.46l3.41-10.08c4.38,1.08,8.23,7.2,8.23,7.2,3.58-3.29,4.94-6.52,5.3-9.21,.54-4.1-1.29-6.98-1.29-6.98-5.73-5.74-12.24-4.3-12.24-4.3,0,0,0,0,0,.01h0c.18,.71,4.68,19.47-24.38,.9-3.4-1.57-8.94,1.59-8.94,1.59Z" fill="#e8c0a6"/><path d="M1076.15,1310.59c-1.62,3.46-7.7,.06-10.94,1.29,3.06,4.27,7.41,7.57,7.41,7.6,5.82,2.83,11.78,5.31,17.87,7.51,5.72,7.88-16.77-1.02-19.55-1.49-.02,.03-.04,.06-.06,.09,5.26,4.24,10.77,8.19,16.6,11.6,4.03,9.52-17.94-5.88-20.57-7.25l-.04,.03c4.21,4.89,9.07,9.23,14.35,12.95,3.22,10.02-17.83-7.47-19.9-9.63l-.07,.03c2.73,4.37,6.04,8.37,9.54,12.15,1.73,9.91-14.28-8.09-15.89-10.27-1.65-.83-10.05-8.03-15.2-18.56-1.69-3.45,8.39-13.31,11.61-11.47,2.42,1.38,9.26,1.31,10.93,1.72,3.88,.39,12.65-.57,13.9,3.7Z" fill="#f99370"/><path d="M990.42,1242.28c-1.95,2.66-4.12,5.29-6.49,7.83h0c-15.5-6.89-13.25-23.57-13.19-23.95h0c4.7-1.99,7.73-3.55,7.73-3.55,1.54,15.43,11.96,19.67,11.96,19.67Z" fill="#d64343"/><path d="M1039.71,1291.6s-1.03,9.17-13.76,14.57c0,0-2.46-1.74-6.49-4.9,0,0,11.29-3.55,16.86-15.18,1.15,2.04,2.28,3.88,3.39,5.51Z" fill="#d64343"/><path d="M936.52,1235.32c-3.8,0-7.31-.43-10.18-1.49-15.08-5.57-10.7-41.08-10.51-42.58,.09-.69,.71-1.18,1.41-1.09,.69,.09,1.18,.72,1.09,1.41-.04,.35-4.33,35.02,8.88,39.9,13.73,5.07,45.12-5.92,45.44-6.03,.65-.24,1.37,.11,1.61,.77,.23,.66-.11,1.38-.77,1.61-1.06,.38-21.44,7.51-36.96,7.51Z" fill="#d64343"/><path d="M923.04,1279.67c-2.56,0-5.17-.15-7.83-.49-48.02-5.97-60.85-59.59-60.97-60.13-.16-.68,.27-1.35,.95-1.51,.68-.16,1.35,.27,1.51,.95,.12,.52,12.58,52.45,58.83,58.19,39.78,4.93,69.29-31.11,69.58-31.48,.44-.54,1.23-.63,1.77-.19,.54,.44,.63,1.23,.19,1.77-.28,.35-26.88,32.89-64.03,32.89Z" fill="#d64343"/><path d="M889.17,1068.74c.24,5.58,4.08,9.95,8.57,9.75,4.49-.2,7.93-4.88,7.69-10.46-.24-5.58-4.08-9.95-8.57-9.75-4.49,.2-7.93,4.88-7.69,10.46Z" fill="#f99370"/><path d="M893.02,1072.07c-.32,0-.6-.24-.65-.57-.61-4.58,.05-7.53,1.95-8.78,2.57-1.7,6.3,.49,6.46,.59,.31,.18,.41,.58,.23,.89-.18,.31-.58,.41-.89,.23-.03-.02-3.19-1.86-5.08-.62-1.42,.94-1.9,3.54-1.37,7.52,.05,.36-.2,.69-.56,.73-.03,0-.06,0-.09,0Z" fill="#c16256"/><path d="M899.18,1072.17c-.29,0-.56-.2-.63-.5-.01-.05-1.28-5.05-5.35-6.01-.35-.08-.57-.43-.49-.78,.08-.35,.44-.57,.78-.49,4.86,1.14,6.27,6.73,6.32,6.97,.08,.35-.13,.7-.48,.79-.05,.01-.1,.02-.15,.02Z" fill="#c16256"/></g><g id="p"><path d="M1906.12,1011.95s-66.08,8.56-39.36,166.76h95.83s5.09-152.39-56.48-166.76Z" fill="#163260"/><path d="M2115.81,1416.47l-93.18,34.31c-1.6,.59-3.38-.23-3.97-1.83,.92-1.96-31.59-75.91-24.92-75.57,.08-.25,93.33-34.25,93.51-34.46,1.6-.59,3.38,.23,3.97,1.83l26.42,71.75c.59,1.6-.23,3.38-1.83,3.97Z" fill="#8a9edd"/><path d="M2115.81,1416.47l-93.18,34.31c-1.6,.59-3.38-.23-3.97-1.83,.88-1.83-31.56-76.01-24.92-75.58,.25,.04,.39,.07,.39,.07,0,0,29.86,70.67,122.32,36.62l.37,.21c1,2.05,1.81,5.22-1.01,6.21Z" fill="#7689d6"/><rect x="2009.52" y="1358.85" width="93.37" height="71.05" transform="translate(-355.15 796.35) rotate(-20.21)" fill="#fff"/><path d="M2112.29,1411.58l-87.62,32.26-19.85-53.92c15.13,18.07,47.84,41.94,107.45,21.6l.02,.05Z" fill="#f5faff"/><path d="M2116.92,1384.84c-2.08-5.63-6.24-16.95-8.31-22.58-1.02-3.03-5.47,.04-7.27,.42l-2.89-7.83c-.4-1.11-1.64-1.66-2.72-1.26l-4.21,1.55c-1.51,.4-3.51,1.36-2.77,3.28l15.55,42.23c.67,1.9,2.83,1.4,4.24,.7,1.6-.89,6.64-1.34,5.48-4.28l-2.88-7.84c1.62-.88,6.99-1.42,5.8-4.39Zm-8.6-11.13c1.68-.64,2.65,2,.95,2.6-1.67,.65-2.65-2-.95-2.6Z" fill="#fcb4b4"/><path d="M2112.74,1399.8c-1.91,.23-7.36,4.16-8.45,.85l-15.55-42.23c-.4-1.1,.16-2.32,1.26-2.72,0,0,10.77,35.09,26.92,29.15,1.19,2.97-4.19,3.52-5.81,4.4l2.89,7.84c.4,1.1-.16,2.32-1.26,2.72Z" fill="#f49f9f"/><path d="M2112.76,1373.55c-4.55-12.36-11.43-10.87-11.43-10.87,1.81-.38,6.25-3.45,7.27-.42l4.16,11.29Z" fill="#f9c0c0"/><path d="M2090.09,1220.18s11.3-1.59,18.41-1.17l-8.03,16.07s-15.9-7.62-16.65-9.37c-.75-1.76,6.28-5.52,6.28-5.52Z" fill="#e57d61"/><path d="M1881.36,1661.42c-.62,2.64-2.98,4.73-5.89,4.78h-28.98c-4.14,0-7.05-4.18-5.86-8,2.24-7.53,7.41-15.03,6.38-23.09-.21-15.8,.06-47.64,.01-57.98h32.67c-.63,8.86-3.62,44.03-4.62,59.14-1.25,9.25,6.53,16.39,6.3,25.14Z" fill="#f99370"/><path d="M1923.66,1165.11c-7.74,19.26-12.88,50.19,10.12,60.95,34.72,13.8,75.06,11.62,110.58,1.28,1.98-.61,3.99-1.3,5.93-2.01,.11-.04,.25-.09,.28-.09l3.87-.14c9.36-.66,13.1,12.91,4.89,17.19-.99,.51-2.7,1.58-3.68,2.07-41.16,21.73-113.7,37.84-154.87,9.9-33.48-22.95-36.65-69.31-26.81-105.32,10.54-33.82,61.01-17.44,49.69,16.16Z" fill="#f99370"/><path d="M2037.83,1661.42c-.23,2.52-2.34,4.78-5.23,4.78h-72.43c-.77-7.37,1.71-14.1,1.31-22.18t0-.01c.33-21.44-4.05-47.47-5.61-66.88h41.63c-.46,8.27-6.48,42.85-6.59,57.66,4.42,16.66,28.5,11.48,39.56,18.02,3.33,1.82,7.55,4.5,7.36,8.6Z" fill="#f99370"/><path d="M2038.19,1661.42c-.05,2.52-2.15,4.78-4.93,4.78h-73.09c-.87-7.38,1.06-14.75,1.31-22.18t0-.01c.1-1.89,.11-3.77-.02-5.64,23.56,28.47,65.95,1.84,76.22,20.87h0c.35,.71,.51,1.46,.5,2.18Z" fill="#eb5648"/><path d="M1881.47,1661.42c-.6,2.69-3.06,4.79-6,4.78h-28.98c-8.41-.59-6.42-9.81-3.1-15.11,0,0,16.17-13.13,35.17-.02,1.62,3.11,3.44,6.78,2.91,10.35Z" fill="#eb5648"/><path d="M1932.68,1121.73c36.49,7.7,58.39,43.65,67.75,77.11,6,20.95,7.04,42.86,11.98,64.02,5.65,26.65,13.26,52.98,23.66,78.17,4.78,11.29-8.26,21.09-16.79,11.67-17.19-21.53-30.53-45.89-41.75-70.97-9.06-19.67-15.25-40.73-22.08-61.22-6.29-16.5-14.65-33.7-28.98-43.14-1.41-.88-2.65-1.49-3.92-1.96,.48,.14,1.1,.2,1.59,.3-35.28-5.75-26.77-59.41,8.54-53.98Z" fill="#f99370"/><path d="M2033.23,1334.43s-7.16,8.73-18.46,12.78c-12.55-16.37-28.9-37.5-38.79-56.27-15.57-43.68-32.53-131.81-41.32-169.85,76.74,12.81,75.17,151.81,98.56,213.34Z" fill="#e8c0a6"/><path d="M2013.63,1326.7c-.36,4.35-3.82,7.17-7.71,8.97-3.77-5.01-8.33-11.19-12.83-17.6l-8.69-141.51s24.65,30.05,27.8,115.62c0,0,2.3,24.15,1.44,34.51Z" fill="#d1a68f"/><path d="M2061.11,1356.25c-.5,1.22-1.85,1.7-2.93,1.07-3.2-1.7-6.46-2.76-9.92-3.6l-25.74,9.67s-4.46-3.68-4.4-12.45c.03-5.1,12.61-12.15,16.99-10.65,4.11,1.4,9.26,4.48,11.07,5.68,3.1,1.12,16.41,5.98,14.94,10.28Z" fill="#f99370"/><path d="M1840.03,1633.05s23.55,8.73,39.92,1.59c9.96-53.19,38.82-160.53,48.64-264.2,0-4.19,32.5,145.81,24.19,260.82,10.39,3.68,32.97,9.29,43.46,.59,7.57-54.15,27.87-207.61-3.58-370.27,0,0-66.77,8.41-125.9-6.99,0,0-25.8,44.49-19.3,139.67,5.42,92.37,1.36,184.31-7.43,238.79Z" fill="#1d3f70"/><path d="M2309.31,1131.83c-33.87,40.96-54.65,97.34-109,114.84-33.31,9.96-68.53,4.79-99.37-9.01-9.52-4.05-5.92-19.19,4.27-18.65,40.88,1.41,90.48-4.9,108.22-47.09,15.51-26.47,33.36-52,55.36-73.54,22.96-24.32,59.76,6.54,40.52,33.46Z" fill="#e57d61"/><path d="M1899.05,1292.19s-6.54,21.1-32.29,35.49l12.85,13.2c.98-1.39,26.63-20.72,33.84-36.71l-14.41-11.97Z" fill="#1d3f70"/><path d="M1846.93,1626.43c5.13-45.29,15.3-142.8,11.45-204.59-2.05-62.61,6.86-94.26,6.95-94.57,1.15-2.05,22.96-11.68,32.33-35.6,.63-1.74,3.49-.79,2.77,1.05-8.21,21.82-28.61,33.87-32.41,35.97-13.83,52.44,.85,240.94-21.09,297.75Z" fill="#163860"/><path d="M1998.16,1292.19c-34.42,21.6-117.07,10.18-144.8,2.17-6.32-17.01,10.44-39.68,7.03-61.23-7.97-50.37,17.49-100.3,47.42-111.03-.01-.15-.02-2.73-.04-2.62l26.88,1.6c13.6,9.69,25.55,20.52,38.68,39.17,19.86,28.15,4.93,41.94,10.71,68.66,1.15,12.94,22.28,57.15,14.11,63.27Z" fill="#eb5648"/><path d="M1830.82,1326.7s.02,.01,.02,.01c-.02,.07-.03,.07-.02-.01Z" fill="#d8b09a"/><path d="M1998.16,1292.19c-29.02,15.29-67.33,13.9-98.43,10.53l12.54-7.51s46.35,4.58,87.69-11.57c.61,4.38,.21,7.46-1.8,8.55Z" fill="#ce3932"/><path d="M1907.85,1122.09s-.03,.01-.09,.03c0-.21,.03-.22,.09-.03Z" fill="#d8b09a"/><path d="M1916.8,1254.73c-1.44,20.24-8.99,75.29-11.26,82.22,0,0-44.61,8.32-74.7-10.24,.85-2.66,14.29-77.72,16.69-111.7,2.8-51.99,45.28-90.31,60.23-92.89,.24,10.05,13.45,96.39,9.04,132.6Z" fill="#e8c0a6"/><path d="M2266.32,1195.7c-17.77,81.7-126.01,63.56-160.42,44.22,6.11-8.02,2.61-20.91,2.61-20.91,119.61-3.71,104.33-106.78,167.36-128.09,0,0,4.64,58.67-9.54,104.78Z" fill="#1d3f70"/><path d="M1934.67,1121.09s33.01,17.68,43.44,63.25c5.84,25.5-1.82,46,3.14,67.24,10.8,46.23,10.8,79.7,10.8,79.7,0,0,10.84,.34,18.52-6.82,0,0,1.72-172.48-75.91-203.36Z" fill="#e8c0a6"/><path d="M2339.8,1661.66l1.14-.56c0,.75,.99,3.34,1.79,3.34l33.73,.65c.8,0,1.29-1.41,1.29-2.16l2.88-.77c0-4.73-.42-6.44-2.65-10.11-8.2-10.09,1.58-55.84,1.31-67.78,1.62-3.32-35.41-.66-36.05-1.47-.84,0-1.51,.67-1.44,1.46-.37,11.87,8.86,57.77,1,67.77-2.23,3.67-3.01,4.88-3,9.62Z" fill="#f99370"/><path d="M2193.56,1666.2h67.19c5.77-.21,5.86-5.66,4.74-10.17-3.7-15.66,2.84-51.61,4.05-67.71,.32-2.95-2.15-5.51-5.31-5.51-48.94-.18-33.77-5.27-29.56,45.89,2.08,18.95-19.25,20.24-32.06,22.76-5.26,1.24-10.88,3.19-13.46,6.91-2.42,3.33,.12,7.83,4.41,7.83Z" fill="#f99370"/><path d="M2268.06,1659.68c-.2,3.22-1.88,6.6-5.63,6.53h-69.7c-17.41-5.02,10.66-27.66,41.86-25.89,2.48,.56,11.66,2.25,25.57,.44,7.64-.84,8.24,12.34,7.9,18.92Z" fill="#103663"/><path d="M2375.28,1666.2h-29.79c-14.36-1.51-4.22-28.01,14.89-26.05,19.22-2.33,29.2,24.65,14.9,26.05Z" fill="#103663"/><path d="M1916.8,1254.73c-.76,8.99-1.85,19.05-3.06,28.99-58.56-12.02-66.11-68-66.2-68.71,1.27-11,3.46-20.76,6.27-29.41l62.99,69.13Z" fill="#d1a68f"/><path d="M2209.34,1657.42c-.55,0-1.08-.32-1.32-.86-2.68-6.18-7.67-8.13-7.72-8.15-1.74-.63-.73-3.35,1-2.69,.25,.09,6.17,2.35,9.36,9.7,.42,.92-.31,2.02-1.31,2Z" fill="#e8c0a6"/><path d="M2220.85,1656.12c-.6,0-1.16-.38-1.36-.98-2.35-7.11-9.03-10.46-9.1-10.49-1.67-.79-.4-3.42,1.26-2.58,.32,.15,7.83,3.89,10.57,12.17,.32,.91-.41,1.9-1.36,1.88Z" fill="#e8c0a6"/><path d="M2233.95,1654.61c-.58,0-1.13-.36-1.34-.93-2.77-7.46-9.14-11.48-9.21-11.52-1.59-.95-.06-3.44,1.51-2.44,.3,.18,7.27,4.58,10.39,12.95,.36,.91-.37,1.95-1.34,1.93Z" fill="#e8c0a6"/><path d="M2266.32,1195.7c-9.8,40.15-41.22,59.36-78.31,60.57h0s21.58-9.64,28.05-47.3c6.46-37.66,31.05-76.8,31.05-76.8l19.2,63.54Z" fill="#163860"/><path d="M2371.06,1648.49c-11.19-6.01-21.55,1.93-22.95-.87-.31-.73,.03-1.57,.76-1.88,.52-.22,12.94-5.38,22.88,.06,1.3,.65,.74,2.74-.69,2.69Z" fill="#e8c0a6"/><path d="M2187.85,1659.68h80.21c-.3,2.29-.97,4.52-2.2,6.53h-73.13c-3.6,0-6.16-3.37-4.88-6.53Z" fill="#0f2e54"/><path d="M2375.28,1666.2h-29.79c-3.79,0-6.84-2.98-6.61-6.53h43c.23,3.55-2.82,6.53-6.61,6.53Z" fill="#0f2e54"/><path d="M2276.6,1014.32s-3.8-21.45,15.02-28.39l11.89,8.93-26.91,19.46Z" fill="#8c4225"/><path d="M2383.98,1630.61s-31.77,7.23-48.14-.54c-8.52-50.02-32.17-189.31-40.41-284.76-.32,5.57-17.62,230.02-20.91,284.76-11.31,3.55-34.03,7.81-46.74-.76-5.71-57.61-24.05-247.33,3.58-402.26,0,0,75.72,7.89,134.84-8.84,16.27,49.05,20.59,353.37,17.78,412.41Z" fill="#3a72aa"/><path d="M2240,1624.35c-11.49-109.65-5.09-248.71,7.49-316.59,3.78,1.46-4.38,36.26-6.75,94.47-4.88,51.19-1.89,137.11-.75,222.12Z" fill="#23659b"/><path d="M2358.98,1624.35c-10.09-171.01-36.73-329.13-34.15-331.6,3.59,.53,30.39,161.27,34.15,331.6Z" fill="#23659b"/><path d="M2289.35,1086.18c-1.65-14.41,.6-35.19,2.61-43.75,1.06-4.62,4.36-8.12,8.08-9.28,9.51-3.3,20.77,4.8,17.84,15.52-.86-.54-3.62,30.02-1.72,38.51,25.1,7.53-50.4,32.29-26.82-1Z" fill="#f99370"/><path d="M2318.14,1047.29c-.07,.46-.15,.94-.26,1.39-.62-.41-2.36,16.45-2.38,28.69-11.5,5.23-24.33,2.93-26.67,2.45,.6-16.55-1.11-42.49,11.21-46.66,8.98-3.84,19.68,4.34,18.1,14.13Z" fill="#e57d61"/><path d="M2336.22,1036.01c-1.93,11.98-5.98,25.49-15.44,33.42h-.02c-3.85,3.19-8.47,5.19-13.42,6.17-27.96,7.82-60.76-24.69-38.91-48.37,8.13-7.61,9.31-19.78,15.96-27.64,9.2-13.36,29.41-12.67,40.31-1.77,9.86,9.85,13.23,23.43,11.52,38.18Z" fill="#f99370"/><path d="M2278.56,1049.89l15.71-8.03c1.43,9.54-8.51,15.63-15.71,8.03Z" fill="#f9f8f3"/><path d="M2290.48,1028.62c-1.1-2.08,2.2-3.76,3.23-1.64,1.1,2.08-2.2,3.76-3.23,1.64Z" fill="#c16256"/><path d="M2275.23,1026.06c-1.1-2.08,2.2-3.76,3.23-1.64,1.1,2.08-2.2,3.76-3.23,1.64Z" fill="#c16256"/><path d="M2336.22,1036.01c-1.93,11.98-5.98,25.49-15.44,33.42h-.02c-.78,.65-1.61,1.26-2.46,1.81,7.2-7.15,11.38-22.48,11.38-22.48l-1.69-12.99c-11.63-11.78-6.62-25.03-6.62-25.03-19.45,5.46-26-6.54-26-6.54-6.15,.79-12.61-2.31-12.61-2.31,8.55-15.18,30.21-15.89,41.95-4.06,9.86,9.85,13.23,23.43,11.52,38.18Z" fill="#e57d61"/><path d="M2371.28,1310.4s.4,5.62,.03,10.43l13.11,4.81,6.97-2.93s-.65-5.39,1.7-11.63-21.82-.67-21.82-.67Z" fill="#f99370"/><path d="M2278.56,1050.58c-.69,.02-.96-1-.31-1.3,.42,.18,16.68-9.45,16.64-7.73,.17,.34,.04,.75-.3,.92-.37,.11-15.61,8.14-16.03,8.1Z" fill="#c16256"/><path d="M2281,1041.84c-3.32-.04-8.49-2.28-4.29-5.23,3.43-1.86,5.95-8.96,5.97-9.03,.28-.84,1.6-.39,1.3,.45-.11,.31-2.72,7.68-6.61,9.79-2.69,1.65,2.91,3.24,5.23,2.43,.36-.12,.75,.08,.86,.44,.2,1.23-1.6,1.06-2.46,1.15Z" fill="#c16256"/><path d="M2376.72,1304.14c-4.09,3.49-10.23,6.22-17.74,8.27h0c-43.07,11.8-131.36,1.54-138.65-13.64-5.82-12.13-6.21-49.99,2.02-90.19,10.89-55.82,28.01-95.14,66.98-122.39-.19,.79-5.16,21.45,26.84,.99l9.84,1.76c3.31,53.5,75.44,190.45,50.72,215.2Z" fill="#1d3f70"/><path d="M2327.23,985.93l-.2,.4c-6.47-7.68-18.26-11.43-20.96-19.25,0,0-4,7.49-3.53,15.86-3.14-3.51-6.01-7.37-8.26-11.5-3.18,3.21-4.88,6.88-5.39,10.65-10.09-2.2-18.93,1.85-18.93,1.85,5.18,14.65,17.28,17.88,26.76,17.93,7.61,7.29,19.63,10.72,31.41,4.18-6.49,5.45-7.26,22.39,10.49,34.31,0,0,3.08-10.29,2.41-19.87,16.63-28.84-13.8-34.57-13.8-34.57Z" fill="#8c4225"/><path d="M2343.83,1042.07c-3.11,13.66-19.45,10.2-16.76-3.54,3.11-13.66,19.45-10.2,16.76,3.54Z" fill="#f99370"/><path d="M2339.51,1044.88c-.45,0-.8-.45-.66-.89,2.53-7.36-.48-10.24-5.5-8.28-.82,.34-1.33-.97-.5-1.28,5.72-2.34,10.41,1.28,7.32,9.96-.09,.3-.36,.49-.66,.49Z" fill="#c16256"/><path d="M2333.1,1043.92c-2.13-.17,1.93-6.75,7.14-7.1,.38-.03,.71,.26,.73,.64,.03,.38-.26,.71-.64,.73-5.31,.55-5.97,5.56-7.23,5.73Z" fill="#c16256"/><path d="M2274.52,1630.07c.07-.05-4.13,1.43-9.81,2.45,0,0,15.96-222.75,18.34-252.48,2.38-29.73,12.38-34.73,12.38-34.73,0,0-21.18,279.95-20.91,284.76Z" fill="#23659b"/><path d="M2275.15,1619.27c-.43,6.43-.66,10.27-.63,10.8-11.31,3.55-34.03,7.81-46.74-.76,0,0-.4-3.53-1.06-10.04,0,0,22.27,9.59,48.44,0Z" fill="#23659b"/><path d="M2383.98,1630.61s-31.77,7.23-48.14-.54c0,0-.68-3.87-1.86-10.8,0,0,21.65,5.87,49.66,0,.12,6.75,.24,10.78,.34,11.34Z" fill="#23659b"/><path d="M1952.77,1631.26s30.36,11.31,43.46,.59c0,0,.59-3.57,1.53-10.18,0,0-22.78,7.87-44.34-3.78h0c-.16,4.48-.38,8.94-.64,13.37Z" fill="#163860"/><path d="M1840.03,1633.05s23.55,8.73,39.92,1.59c0,0,.96-4.66,2.6-12.96,0,0-14.7,7.68-40.38-1.88-.71,5.3-1.43,9.76-2.15,13.26Z" fill="#163860"/><path d="M1953.42,1617.9c-.16,4.48-.38,8.93-.64,13.36,0,0,3.37,1.26,8.36,2.53-.11-79.92-.02-208.89-32.55-263.36,0,0,29.51,122.1,24.83,247.46Z" fill="#163860"/><path d="M1928.58,1371.92c-3.86-.18,2.36-11.83,4.63-26.44,.36-1.88,3.32-1.29,2.9,.6-3.78,15.06-4.71,24.82-7.54,25.84Z" fill="#163860"/><path d="M2050.09,1225.54c12.63-6.58,25.86-5.11,45.59,1.97,6.86,.84,11.47,13.69,.44,15.77-16.11,3.04-36.82-1.17-36.82-1.17l-9.21-16.57Z" fill="#f99370"/><path d="M2070.6,1228.42c6.02-5.75,14.47-8.58,22.74-8.31,5.23-.14,8.83,7.69,3.59,7.68-6.52-1.11-16.97,.19-22.55,3.94-2.39,2.46-6.17-.76-3.77-3.32Z" fill="#e57d61"/><path d="M2076.5,1243.4c-2.53,4.49-7.9,1.39-5.27-3.05,2.53-4.49,7.9-1.39,5.27,3.05Z" fill="#e57d61"/><path d="M2081.85,1243.94c-2.53,4.49-7.9,1.39-5.27-3.05,2.53-4.49,7.9-1.39,5.27,3.05Z" fill="#e57d61"/><path d="M2087.3,1244.49c-2.53,4.49-7.9,1.39-5.27-3.05,2.53-4.49,7.9-1.39,5.27,3.05Z" fill="#e57d61"/><path d="M2092.85,1244.49c-2.53,4.49-7.9,1.39-5.27-3.05,2.53-4.49,7.9-1.39,5.27,3.05Z" fill="#e57d61"/><path d="M2326.01,1088.94c.17,12.21-31.14,22.98-32.91,23l-3.75-11.11c-4.82,1.19-9.06,7.94-9.06,7.94-13.81-13.72-1.18-24.44,9.06-22.59,0,0,0,0,0,.02-.19,.79-2.38,18.9,26.72,.36,3.75-1.73,9.96,2.39,9.96,2.39Z" fill="#f4d4be"/><rect x="2311.04" y="1366.59" width="149.81" height="109.21" transform="translate(-178.47 355.22) rotate(-8.21)" fill="#8c4225"/><polygon points="2319.6 1485.93 2311.05 1481.03 2295.44 1372.95 2303.99 1377.85 2319.6 1485.93" fill="#7f341c"/><polygon points="2295.44 1372.95 2443.76 1351.59 2452.28 1356.45 2303.99 1377.85 2295.44 1372.95" fill="#7f341c"/><path d="M2406.39,1356.97c-14.53-29.82-52.11-21.4-60.54,8.72-.15,2.46,1.5,4.67,3.63,4.35,2.55-.42,2.86-3.54,3.94-5.44,6.06-13.73,22.6-22.68,36.36-14.73,4.22,2.27,8.04,6.06,10.72,10.35,2.27,3.62,6.54,.33,5.89-3.25Z" fill="#8c4225"/><polygon points="2303.99 1377.85 2385.94 1421.19 2452.28 1356.45 2303.99 1377.85" fill="#99452b"/><path d="M2388.1,1430.43c-3.4,.99-7.32-.63-7.83-4.41-.51-4.5-3.42-13.07,3.51-14.06,3.4-.99,7.32,.63,7.83,4.41,.51,4.5,3.42,13.07-3.51,14.06Z" fill="#f4d4be"/><path d="M2371.32,1320.82s-6.83,14.67-6.83,30.53l22.55,1.29c7.33-10.6,4.36-29.94,4.36-29.94l-20.08-1.88Z" fill="#f99370"/><path d="M2376.72,1304.14c-4.09,3.49-10.23,6.22-17.74,8.27,1.76-21.58-1.76-55.75-16.94-94.21-15.17-38.47-14.49-78.02-14.49-78.02l11.2,.84c19.66,55.1,55.98,147.75,37.97,163.12Z" fill="#163860"/><path d="M2326.01,1088.94c82.18,18.17,105.08,147.51,65.39,233.76,0,0-8.8,2.93-20.08-1.88,0,0-.39-61.64-25.32-111.35-24.93-49.71-19.99-120.53-19.99-120.53Z" fill="#1d3f70"/><path d="M1881.47,1661.42c-.6,2.69-3.06,4.79-6,4.78h-28.98c-2.94,.01-5.39-2.09-5.99-4.78h40.98Z" fill="#ce3932"/><path d="M2038.19,1661.42c-.05,2.52-2.15,4.78-4.93,4.78h-73.09c-.25-1.64-.33-3.06-.25-4.78h78.27Z" fill="#ce3932"/><path d="M2033.69,1334.99s-6.68,9.06-17.98,13.11c0,0-3.15-1.72-5.13-6.3,0,0,15.68-5.69,19.83-15.09,1.28,1.34,3.29,5.28,3.29,8.29Z" fill="#d1a68f"/><path d="M2045.66,1249.52c-51.62,42.08-153.05,49.35-185.02-13.23-29.39-58.12,9.85-108.27,47.21-114.2-.03,0,12.35,35.39,8.36,61.67l.33,23.78c15.38,31.12,94.76,26.55,123.91,20.79,10.59,10.55,5.21,21.18,5.21,21.18Z" fill="#e8c0a6"/><path d="M2047.6,1248.52c-2.64,3.06-5.83,3.82-7.8,5.16,2.39-17.61-6.58-24.13-6.58-24.13,3.9-1.84,8.29-1.21,8.29-1.21,8.57,8.25,6.08,20.19,6.08,20.19Z" fill="#d1a68f"/><path d="M1907.74,1119.01s-10.59,2.01-16.82,9.32c0,0,10.75,23.05,18.41,33.38-9.32,16.44,2.19,38.21,7.21,45.84,0,0,7.78-52.79-8.8-88.54Z" fill="#d1a68f"/><path d="M1989.47,1233.77c-5.96,0-9.95-.21-10.03-.21-1.08-.05-1-1.74,.09-1.68,.14,0,14.51,.75,29.62-.62,.46-.04,.87,.3,.91,.76,.04,.46-.3,.87-.76,.91-7.28,.66-14.38,.83-19.84,.83Z" fill="#d1a68f"/><path d="M1986.56,1278.66c-5.19-2.02,18.12-5.47,29.69-12.46,.41-.22,.92-.06,1.14,.36,.22,.41,.06,.92-.35,1.14-12.53,6.48-29.9,10.9-30.47,10.97Z" fill="#d1a68f"/><path d="M2095.16,1232.73c-6.55-.22-16.27-.05-13.18-1.76,.12,.01,11.88,1.14,19.48,.38,2.91,1.68-5.23,1.31-6.3,1.39Z" fill="#e57d61"/><path d="M2092.8,1237.46c-.16-.03-13.97-.04-10.39-1.91,11.52,1.77,20.12,.02,20.2,0,2.77,1.36-3.53,1.8-9.81,1.91Z" fill="#e57d61"/><path d="M2370.39,1352.64c-2.4,4.56-7.85,1.62-5.36-2.89,2.4-4.56,7.85-1.62,5.36,2.89Z" fill="#f99370"/><path d="M2375.75,1353.03c-2.4,4.56-7.85,1.62-5.36-2.89,2.4-4.56,7.85-1.62,5.36,2.89Z" fill="#f99370"/><path d="M2381.22,1353.42c-2.4,4.56-7.85,1.62-5.36-2.89,2.4-4.56,7.85-1.62,5.36,2.89Z" fill="#f99370"/><path d="M2386.76,1353.26c-2.4,4.56-7.85,1.62-5.36-2.89,2.4-4.56,7.85-1.62,5.36,2.89Z" fill="#f99370"/><path d="M1941.05,1125.77c-1.28,15.33-28.26,5.26-29.5,3.28-.4-1.06-4.45-8.51-3.76-9.56l26.88,1.6s2.46,1.59,6.39,4.68Z" fill="#ce3932"/><path d="M1906.12,1011.95c32.97-5.13,65.16,35.89,46.46,72.85l-46.46-72.85Z" fill="#163260"/><path d="M1934.67,1121.09c1.65-14.41-.6-35.19-2.61-43.75-3.82-16.89-30.21-10.46-25.93,6.24,.86-.54,1.66,35.91,1.66,35.91,4.3,6.83,26.88,12.61,26.88,1.6Z" fill="#f99370"/><path d="M1907.61,1112.69c11.5,5.23,25.22,2.52,27.57,2.04,3.82-58.61-26.07-64.6-27.57-2.04Z" fill="#e57d61"/><path d="M1887.8,1070.92c1.93,11.98,5.98,25.49,15.44,33.42h.02c3.82,3.18,8.48,5.2,13.42,6.17,27.96,7.82,60.76-24.69,38.91-48.37-7.94-7.34-9.63-20.34-15.96-27.64-9.2-13.36-29.41-12.67-40.31-1.77-9.86,9.85-13.23,23.43-11.52,38.18Z" fill="#f99370"/><path d="M1945.45,1084.8l-15.71-8.03c-1.43,9.54,8.51,15.63,15.71,8.03Z" fill="#f9f8f3"/><path d="M1933.53,1063.53c1.1-2.08-2.2-3.76-3.23-1.64-1.1,2.08,2.2,3.76,3.23,1.64Z" fill="#c16256"/><path d="M1948.78,1060.97c1.1-2.08-2.2-3.76-3.23-1.64-1.1,2.08,2.2,3.76,3.23,1.64Z" fill="#c16256"/><path d="M1945.45,1085.49c-.39,.05-15.68-8.01-16.03-8.1-.34-.17-.47-.59-.3-.92-.12-1.75,16.29,7.94,16.64,7.73,.64,.3,.38,1.33-.31,1.3Z" fill="#c16256"/><path d="M1943.02,1076.74c-.86-.09-2.65,.08-2.46-1.15,.12-.36,.5-.56,.86-.44,2.31,.82,7.91-.78,5.23-2.43-3.89-2.11-6.5-9.47-6.61-9.79-.31-.83,1.01-1.3,1.3-.45,.03,.07,2.55,7.18,5.97,9.03,4.2,2.95-.97,5.19-4.29,5.23Z" fill="#c16256"/><path d="M1887.8,1070.92c1.93,11.98,5.98,25.49,15.44,33.42h.02c-5.25-6.51-8.52-21.09-8.52-21.09l2.48-6.48c41.61-13.43,38.04-46.85,38.04-46.85-6.21-5.42-14.59-6.52-22.56-4.54-19.54,5.05-27.36,26.15-24.9,45.54Z" fill="#e57d61"/><path d="M1930.84,1026.95c-2.1-1.37-4.15-2.54-6.16-3.52,1.47-4.43,1.73-9.93,.17-16.34-8.63-31.38-45.17-21.92-37.48,9.71,.93,3.38,2.18,6.28,3.67,8.73-10.8,9.16-14.55,26.61-7.46,40.52l13.37,7.38c37.24-13.53,33.89-46.48,33.89-46.48Z" fill="#163260"/><path d="M1880.19,1076.98c3.11,13.66,19.45,10.2,16.76-3.54-3.11-13.66-19.45-10.2-16.76,3.54Z" fill="#f99370"/><path d="M1884.51,1079.79c-.29,0-.57-.19-.66-.49-3.1-8.68,1.61-12.3,7.32-9.96,.83,.31,.32,1.61-.5,1.28-5.04-1.96-8.03,.92-5.5,8.28,.14,.43-.21,.89-.66,.89Z" fill="#c16256"/><path d="M1890.92,1078.83c-1.25-.16-1.93-5.19-7.23-5.73-.38-.03-.66-.35-.64-.73,.02-.38,.36-.67,.73-.64,5.21,.35,9.27,6.92,7.14,7.1Z" fill="#c16256"/><path d="M1887.69,1083.26c-.03,2,3.11,2,3.08,0,.03-2-3.11-2-3.08,0Z" fill="#f4d4be"/><path d="M1934.87,1119.01s32.26,15.08,37.75,40.21c0,0,14.36,14.24,7.84,41.74,0,0-15.78-50.85-45.8-79.87l.21-2.08Z" fill="#d1a68f"/><path d="M1939.56,1141.5c.05,3.72-5.79,3.72-5.73,0-.05-3.72,5.79-3.72,5.73,0Z" fill="#ce3932"/><path d="M1945.29,1153.82c.05,3.72-5.79,3.72-5.73,0-.05-3.72,5.79-3.72,5.73,0Z" fill="#ce3932"/><path d="M1951.02,1167.15c.05,3.72-5.79,3.72-5.73,0-.05-3.72,5.79-3.72,5.73,0Z" fill="#ce3932"/><path d="M2369.92,1353.93c-1.35-.13,.35-6.89,1.39-11.73,.08-.3,.4-.47,.69-.39,.3,.08,.47,.39,.39,.69-1.66,5.01-1.27,11.12-2.47,11.42Z" fill="#e57d61"/><path d="M2375.31,1353.93c-1.38-.13,.55-6.46,1.63-11.25,.09-.3,.4-.47,.7-.38,.3,.09,.47,.4,.38,.7-1.67,4.84-1.53,10.59-2.71,10.93Z" fill="#e57d61"/><path d="M2381.22,1353.98c-1.5-.32,1.23-5.7,1.03-11.15,0-.31,.26-.56,.57-.55,.31,0,.56,.26,.55,.57-.1,4.86-1.55,10.47-1.61,10.7-.07,.25-.29,.42-.54,.42Z" fill="#e57d61"/></g><g id="q"><path d="M353.25,1101.56c37.74-7.21,30.58-32.77,67.11-20.03,0,0,33.71-21.7,36.86,35.94,2.75,50.13-21.22,74.23-59.38,94.82-45.28,24.43-116.48-2.18-113.52-58.73,2.06-39.3,31.89-44.92,68.92-51.99Z" fill="#1d3f70"/><path d="M444.87,1173.78c61.38,19.75,95.18-4.22,120.79-60.15,2.54-10.22,16.7-9.16,15.78,1.75-.18,1.82-.85,4.22-1.14,6-16.19,76.35-74.57,112.14-149.04,84.81-21.12-9-7.65-41.22,13.62-32.42Z" fill="#f99370"/><path d="M432.16,1170.08s8.56-3.45,17.12,0c8.56,3.45,31.09,7.18,46.28,4.82,15.18-2.37,37.03-17.15,43.89-27.09,6.86-9.94,10.97-19.21,18.17-16.98,0,0,6.52,5.07,19.2,3.99,0,0,10.97,14.61-6.52,41.76-17.07,26.5-60.31,64.32-125.88,52.5l-12.27-59Z" fill="#3a72aa"/><g><path d="M708.11,1064.73l-232.97,40.71c-.09,0-.19,0-.28,0-2.17,.19-3.65,3.49-3.31,7.37,.34,3.88,2.38,6.87,4.55,6.68,.09,0,.19-.03,.28-.05l236.5-.62-4.76-54.08Z" fill="#eb5648"/><ellipse cx="710.49" cy="1091.77" rx="12" ry="27.14" transform="translate(-93 66.51) rotate(-5.03)" fill="#ce3932"/><path d="M701.51,1092.56c.99,11.22,5.81,19.97,10.77,19.53,4.96-.44,8.18-9.89,7.2-21.11-.99-11.22-5.81-19.97-10.77-19.53s-8.18,9.89-7.2,21.11Z" fill="#aab9e8"/></g><path d="M433.05,1162.35l-1.09,7.85c-4.02,13.09-21.43,2.84-24.31-2.35,0,0,1.57-7.43,1.88-10.92l23.52,5.43Z" fill="#f99370"/><g><path d="M274.18,1655.5l-36.46-44.73c1.75-2.7,14.36-9.31,17.99-12.99,2.61-1.86,31.71-31.49,34.81-34.46l20.93,25.68-36.43,22.79c-4.32,2.7-6.1,8.09-4.28,12.84,3.58,10.81,12.79,18.98,10.61,29.56-1.05,3.1-5.11,3.84-7.18,1.3Z" fill="#f99370"/><path d="M240.91,1605.91c-1.36,1.41-2.49,3.03-3.2,4.86l36.76,45.1c1.79,2.19,5.24,2.02,6.72-.39,3.44-5.65,5.61-17.32-10.24-38.99,0,0-7.87-5.36-15.24-18.7,0,0-9.28,2.38-14.8,8.12Z" fill="#1d3f70"/><path d="M283.64,1641.64c-2.1,.54-3.54-2.37-10.42-.37-.62,.19-1.28-.16-1.47-.78,.42-4.42,16.16-1.58,11.89,1.14Z" fill="#e8c0a6"/><path d="M280.94,1633.35c-.31,.18-.7,.21-1.05,.06h0c-.06-.02-5.63-2.34-11.51,.03-1.41,.6-2.31-1.64-.88-2.19,6.82-2.75,13.06-.12,13.32-.01,.88,.35,.95,1.66,.12,2.1Z" fill="#e8c0a6"/><path d="M275.93,1623.95c-1.56,.56-5.72-2.01-13.18,.61-1.42,.54-2.26-1.71-.81-2.22,7.59-2.44,16.74-1.47,13.98,1.6Z" fill="#e8c0a6"/><path d="M281.25,1655.39l-40.34-49.48c-1.36,1.41-2.49,3.03-3.2,4.86l36.76,45.1c1.81,2.23,5.33,2,6.77-.48Z" fill="#395b96"/></g><g><path d="M454.07,1664.51l-57.64-.63c-.95-3.08,2.04-16.98,1.54-22.13-.01-2.17-.57-14.02-.77-16.18l4.31-32.52,25.41,.28-5.82,42.56c-.69,5.05,2.31,9.86,7.13,11.51,10.59,4.16,22.68,2.35,29.46,10.7,1.76,2.81-.32,6.45-3.63,6.42Z" fill="#f99370"/><path d="M394.74,1658.31c.21,1.95,.73,3.85,1.69,5.57l58.2,.64c2.83,.03,4.91-2.73,4-5.41-2.14-6.26-9.71-15.4-36.52-17.09,0,0-9.16,2.62-24.13-.26,0,0-4.11,8.65-3.23,16.56Z" fill="#1d3f70"/><path d="M441.52,1656.86c-.82,.01-1.42-.88-1.09-1.63,2.6-6.21,7.35-8.08,7.55-8.16,1.42-.56,2.28,1.67,.84,2.2-.18,.07-4.03,1.64-6.22,6.87-.19,.45-.63,.72-1.09,.72Z" fill="#e8c0a6"/><path d="M432.37,1655.66c-.78,.01-1.38-.8-1.12-1.54,2.16-7.82,12.4-13.6,9.59-8.13-.07,.03-5.41,2.83-7.35,8.85-.16,.5-.62,.82-1.12,.82Z" fill="#e8c0a6"/><path d="M421.96,1654.26c-.8,.01-1.4-.83-1.11-1.58,2.55-7.08,8.15-10.75,8.38-10.9,1.27-.84,2.58,1.17,1.28,1.98-.08,.05-5.18,3.44-7.45,9.72-.17,.48-.63,.78-1.11,.78Z" fill="#e8c0a6"/><path d="M458.6,1659.01l-63.86-.7c.21,1.95,.73,3.85,1.69,5.57l58.2,.64c2.87,.04,4.96-2.81,3.97-5.51Z" fill="#395b96"/></g><path d="M410.14,1132.11c0,.42,.03,.85,.08,1.27,.6-.3,.36,14.9-.93,25.8,9.69,5.88,21.35,5.19,23.49,5.01,1.87-13.78,2.1-26.5,1.02-34.64-2.56-13.86-24.13-11.49-23.66,2.57Z" fill="#e57d61"/><path d="M394.46,1123.78c1.89,10.72,5.69,22.78,14.28,29.76h.01c3.47,2.8,7.68,4.55,12.12,5.36,24.94,6.82,54.27-23.17,34.27-43.86-7.22-6.48-8.89-18.11-14.66-24.57-8.43-11.86-26.53-10.97-36.17-1.07-8.71,8.96-11.56,21.17-9.84,34.38Z" fill="#f99370"/><path d="M435.38,1116.57c.96-1.88-2.02-3.34-2.92-1.43-.96,1.88,2.02,3.34,2.92,1.43Z" fill="#c16256"/><path d="M449.02,1114.07c.96-1.88-2.02-3.34-2.92-1.43-.96,1.88,2.02,3.34,2.92,1.43Z" fill="#c16256"/><path d="M423.88,1633.47c-19.63,3.8-33.83-7.81-33.83-7.81,1.17-4.04,2.25-8.01,3.3-12.04h.01c36.1-137.49-1.7-209.8-1.7-209.8-7.99,71.07-26.96,140.72-95.54,202.09-2.88,2.59-5.86,5.16-8.93,7.71-15.45-3.44-29.8-28.93-29.8-28.93,2.41-2.83,4.73-5.68,6.94-8.53,75.85-97.62,37.5-202.19,72.16-266.84,18.43-34.38,91.44-12.87,119.23,19.28,46.62,146.43-7.37,258.36-31.84,304.86Z" fill="#eb5648"/><path d="M444.99,1128.22c-1,.02-3.2,.43-3.16-.93,.1-.33,.45-.51,.77-.41,2.07,.63,4.98-.45,5.37-1.39,.14-.33-.31-.65-.71-.86-3.48-1.68-8.09-11.32-4.9-9.11,.02,.06,2.38,6.4,5.47,8.02,3.5,2.34-.09,4.24-2.83,4.67Z" fill="#c16256"/><path d="M279.16,1600.08l-2.21-2.09c.6-.64,60.25-64.31,77.12-120.55,16.91-56.36,15.03-149.03,15.01-149.96l3.04-.07c.02,.93,1.91,94.08-15.14,150.9-17.08,56.94-77.22,121.12-77.82,121.76Z" fill="#ce3932"/><path d="M394.46,1123.78c1.89,10.72,5.69,22.78,14.28,29.76h.01c-4.79-5.77-7.91-18.79-7.91-18.79l2.14-5.84c37.14-12.58,33.51-42.49,33.51-42.49-24.06-16.73-47.29,12.83-42.03,37.37Z" fill="#e57d61"/><path d="M432.49,1083.81s3.43,29.5-29.79,42.11l-12.08-6.44c-12.02-22.77,8.67-56.73,41.87-35.67Z" fill="#1d3f70"/><path d="M393.38,1075.27c8.15,28.02,40.79,19.06,33.48-9.19-8.15-28.02-40.79-19.06-33.48,9.19Z" fill="#1d3f70"/><path d="M387.71,1129.31c2.6,12.12,17.86,8.66,14.99-3.39-2.6-12.12-17.86-8.66-14.99,3.39Z" fill="#f99370"/><path d="M391.7,1131.77c-2.57-2.62-1.65-7.97-.33-8.9,2.41-1.97,6.77-.98,6.46,.25-.76,1.23-3.26-1.33-5.61,.64-2.41,1.83,.92,6.97-.51,8.01Z" fill="#c16256"/><path d="M397.43,1130.83c-1.26-.05-1.79-4.62-6.63-5.04-.34-.02-.6-.31-.58-.65,3.36-2.6,9.51,5.91,7.21,5.68Z" fill="#c16256"/><path d="M394.52,1134.85c0,1.79,2.82,1.75,2.76-.04,0-1.79-2.82-1.75-2.76,.04Z" fill="#f4d4be"/><path d="M390.06,1625.66s14.2,11.61,33.83,7.8c0,0,2.19-3.59,5.65-10.28,0,0-23.57,2.22-36.17-9.57h-.01c-1.03,3.96-2.12,7.97-3.29,12.04Z" fill="#ce3932"/><path d="M393.35,1613.62c-.36,1.39-.73,2.79-1.11,4.19h7.03c24.58-73.64,28.88-194.93-7.61-214,0,0,37.81,72.31,1.7,209.8h-.01Z" fill="#ce3932"/><path d="M416.38,1629.32c19.3-44.01,32.18-86.97,38.27-127.69,4.88-32.61,5.44-63.87,1.68-92.91-6.42-49.54-23.51-75.86-23.68-76.12l-2.24,1.48c.17,.26,16.96,26.18,23.28,75.17,5.83,45.24,3.67,119.95-39.77,218.98l2.46,1.08Z" fill="#ce3932"/><path d="M461.77,1257.47c-5.1,14.96-12.84,30.64-3.27,60.26,1.07,7.88-2.78,10.87-2.78,10.87-36.93,12.33-89.55,1.11-121.13-14.02-18.09-14.73,6.61-42.72,8.06-52.32,15.4-102.38,49.01-97.96,65.72-97.96,5.51,6.38,19.14,16.92,23.79,5.78,23.96,3.44,16.85,30.33,23.13,40.21,6.5,10.28,9.28,18.56,9.91,25.86,.68,7.8-1.11,14.48-3.44,21.32Z" fill="#3a72aa"/><path d="M442.72,1132.8c1.08,0,1.82-.31,1.88-.33,.38-.16,.55-.61,.39-.99-.16-.38-.6-.55-.98-.39-.11,.04-2.36,.93-4.68-1.28-.3-.29-.77-.28-1.06,.02-.29,.3-.27,.78,.03,1.06,1.61,1.54,3.23,1.91,4.43,1.91Z" fill="#c16256"/><path d="M427.5,1110.78c.09,0,.19-.02,.28-.05l6.95-2.81c.38-.16,.57-.59,.41-.98-.16-.38-.6-.57-.98-.41l-6.95,2.81c-.38,.16-.57,.59-.41,.98,.12,.29,.4,.47,.7,.47Z" fill="#c16256"/><path d="M441.29,1107.12h6.27c.41,0,.75-.34,.75-.75s-.34-.75-.75-.75h-6.27c-.41,0-.75,.34-.75,.75s.34,.75,.75,.75Z" fill="#c16256"/><path d="M385.88,1213.71c24.91,13.37,52.91,26,82.09,22.36,43.42-8.23,58.55-57.34,60.06-96.01,.59-6.02,.48-13.55-7.38-13.89-8.9,.1-7.91,10.76-10.26,16.83-21.07,66.15-45.51,70.94-101.67,34.47-23.78-14.83-46.47,21.22-22.84,36.25Z" fill="#f99370"/><path d="M510.46,1105.59c3.4-.28,2.74,7.79,4.7,10.2,2.97-4.6,4.63-10.1,4.66-10.11,.75-6.74,1.14-13.51,1.22-20.3,5.32-8.83,4.51,17.11,4.9,19.67,.03,0,.07,.01,.1,.02,2.24-6.74,4.12-13.62,5.41-20.61,7.47-7.86,.29,20.17-.11,22.83l.04,.03c3.18-5.98,5.64-12.36,7.38-18.91,8.23-7.25-1.27,20.66-2.53,23.08l.05,.06c3.18-4.34,5.81-9.08,8.18-13.91,8.63-5.65-3.02,17.32-4.41,19.41-.24,1.92-5.09,10.62-13.19,19.63-2.65,2.95-12.51-2.17-13.77-5.87-1.18-3.46-1.46-8.44-1.61-10.24-.87-3.45-4.56-12.88-1.03-14.98Z" fill="#f99370"/><path d="M528.46,1138.09s-7.18,2.32-15.78-4.65c0,0-1.69,2.13-1.02,4.71,0,0,6.09,6.67,16.63,4.57,0,0,1.16-1.89,.17-4.63Z" fill="#10325b"/><path d="M461.77,1257.47h0c-54.7,6.49-76.72-30.75-76.72-30.75l80.16,9.43c.68,7.8-1.11,14.48-3.44,21.32Z" fill="#23659b"/><path d="M400.91,1166.75s14.06,6.81,23.32,14.68c9.26,7.87,21.14,15.36,33.2,14.02,12.06-1.35,24.06-6.46,30.58-19.86,5.96-12.26,12.54-24.86,19.65-24.43,0,0,9.92,4.69,19.31,2.39,0,0,15.22,10.04-2.61,52.22-17.83,42.18-71.08,49.28-92.2,45.95-32.62-5.14-58.58-29-61.33-55.21-2.74-26.21,19.9-30.13,30.08-29.75Z" fill="#3a72aa"/><path d="M296.12,1605.91c-2.88,2.59-5.86,5.16-8.93,7.71-15.45-3.44-29.8-28.93-29.8-28.93,2.41-2.83,4.73-5.68,6.94-8.53,0,0,12.6,23.5,31.79,29.74Z" fill="#ce3932"/><path d="M515.52,1221.31c-.16,0-.33-.05-.47-.16-.33-.26-.39-.74-.13-1.07,.11-.15,11.51-14.88,16.22-38.14,3.23-15.98-1.07-22.91-1.12-22.97-.23-.35-.13-.82,.23-1.05,.35-.23,.82-.13,1.05,.23,.19,.3,4.68,7.52,1.33,24.1-4.79,23.63-16.4,38.62-16.52,38.77-.15,.19-.37,.29-.6,.29Z" fill="#23659b"/><path d="M455.39,1196.43c-2.3,0-3.73-.2-3.78-.21-10.95-.51-27.17-13.65-27.86-14.21-.33-.26-.37-.74-.11-1.07,.27-.33,.74-.37,1.07-.11,.16,.13,16.52,13.38,27.04,13.87,.32,.05,24.07,3.32,35.06-18.48,.19-.38,.65-.53,1.02-.34,.38,.19,.53,.65,.34,1.02-8.78,17.42-25.34,19.51-32.78,19.51Z" fill="#23659b"/></g></g></svg>